<svg xmlns="http://www.w3.org/2000/svg" xmlns:xlink="http://www.w3.org/1999/xlink" viewBox="0 0 434.25 161.01"><defs><style>.cls-1,.cls-11,.cls-14{fill:none;}.cls-2{clip-path:url(#clip-path);}.cls-3{fill:#d8a635;}.cls-4{fill:#d7c494;}.cls-5{fill:#775c2c;}.cls-6{fill:#48381c;}.cls-7{fill:#2c1d17;}.cls-8{fill:#fff;}.cls-9{fill:#c1a973;}.cls-10{fill:#f0dcbd;}.cls-11,.cls-14{stroke:#020302;stroke-width:2.93px;}.cls-11{stroke-miterlimit:10;}.cls-12{fill:#a38051;}.cls-13{fill:#987447;}.cls-14{stroke-linejoin:round;}.cls-15{fill:#eae2d6;}.cls-16{fill:#a48f70;}.cls-17{fill:#be242a;}.cls-18{fill:#3a856b;}.cls-19{fill:#2a604b;}.cls-20{fill:#3ca97e;}.cls-21{fill:#cacccd;}.cls-22{fill:#7d7f82;}.cls-23{fill:#221a17;}.cls-24{fill:#f2f2f3;}.cls-25{fill:#b1b7bc;}.cls-26{fill:#b9c1c6;}</style><clipPath id="clip-path" transform="translate(-20.12 -27.32)"><rect class="cls-1" width="474.5" height="241.05"/></clipPath></defs><g id="Layer_2" data-name="Layer 2"><g id="Layer_1-2" data-name="Layer 1"><g class="cls-2"><g class="cls-2"><path class="cls-3" d="M157,104.77c-3.62-3-4.77-5.43-9.31-6.49-2.32-.54-5.13-.86-7.48-1.2-1.84-.27-5.91-.7-7.73-1-11.1-1.75-23.39-1.22-34.6-1.15a364.24,364.24,0,0,0-42.41,2.75c-3.53.44-7.27,1-10,3.35a9.56,9.56,0,0,0-2.58,10.47.4.4,0,0,1,0,.3.32.32,0,0,1-.21.21.25.25,0,0,1-.25-.18,15.68,15.68,0,0,0-12.13-4.11,11.73,11.73,0,0,0-9.74,7.81c-1.35,4.49.6,9.44,3.73,12.94s7.29,5.86,11.29,8.32,8,5.17,10.58,9.09c1.15,1.75,2.19,3.89,4.2,4.46s4.08-.72,5.13-2.47A14.13,14.13,0,0,0,57,142c5.79,4.94,10.88,10.38,16.67,15.32,1.08.92,2.23,1.95,2.46,3.35.14.82-.07,1.68.11,2.49s1,1.6,1.76,1.26a224.17,224.17,0,0,0,42.93,2.05c7.82-.37,15.75-1.17,23-4.17s13.73-8.51,16.35-15.88a90.76,90.76,0,0,0,3.69-15c1.6-9.5,1-20-6.94-26.64M34.79,127.63a12.55,12.55,0,0,1-3.35-4.54,4.6,4.6,0,0,1,.19-4.14,5.27,5.27,0,0,1,2.6-1.8,14.88,14.88,0,0,1,9.64,0q2.57,6,5.14,12.06a27.67,27.67,0,0,0,4.14,7.47,36.58,36.58,0,0,1-18.36-9.1" transform="translate(-20.12 -27.32)"/><path class="cls-4" d="M20.86,116.06c1.84-3.39,4.67-6.63,8.8-6.78,1.06,0,2.56.45,3.52,0-.18.09,0-.17,0-.15a2.07,2.07,0,0,0-.43-.75,4,4,0,0,1-.58-.77,12.74,12.74,0,0,0-1.85.09,11.73,11.73,0,0,0-9.74,7.81,10.42,10.42,0,0,0-.37,1.83c.22-.44.44-.88.67-1.31" transform="translate(-20.12 -27.32)"/><path class="cls-4" d="M55.83,98.67a91.09,91.09,0,0,1,11.86-1.6c7.55-.58,15.13,0,22.66-.8,3.8-.4,7.57-1,11.37-1.31l1.15-.07-5,0a364.24,364.24,0,0,0-42.41,2.75c-3.53.44-7.27,1-10,3.35-.11.09-.21.2-.31.3,3.6-.63,7-1.92,10.62-2.67" transform="translate(-20.12 -27.32)"/><path class="cls-4" d="M136.7,111.18c0-.27-.07-.6-.08-.76s-.14-.58-.2-.85l-.06,0c-.18,0-.37-.06-.56-.09-1.41-.1-2.83-.14-4.24-.21-6.66-.33-13.32-.11-20-.41l-3.63-.15s0,0,0,0c-4,2.84-8.58,4.07-13.22,5.18,4.81-.32,9.63-.61,14.45-.8,6.77-.27,13.68.12,20.41-.68,2.4-.28,4.78-.76,7.15-1.25" transform="translate(-20.12 -27.32)"/><path class="cls-4" d="M90.75,149.63c12,4.29,24.49,5.27,37.09,5.54a14.85,14.85,0,0,0,5.59-3.34,15.49,15.49,0,0,0-3.35-13.07c-3.19-4-8.66-6.44-10.83-11.18a8.5,8.5,0,0,1-.68-4.29c.08-1,.68-2.67.36-3.69-.41-1.33-2.85-1.54-4.08-2a64.63,64.63,0,0,1-6.65-.48c-2.93-.32-5.83-.39-8.78-.45-5.54-.11-11.24-.53-16.7.63-3.64.78-5.61,2.4-6.58,6a22.4,22.4,0,0,0-.2,10.58c1.78,7.57,7.64,13.11,14.81,15.69" transform="translate(-20.12 -27.32)"/><path class="cls-5" d="M157,104.77c-3.62-3-4.77-5.43-9.31-6.49-2.32-.54-5.13-.86-7.48-1.2l-.92-.13a1.46,1.46,0,0,1-2.1.71,7.82,7.82,0,0,1-1.08-.14l-1.59-.13c-1.49-.14-3-.18-4.46-.23-3.65-.11-7.29-.32-10.94-.41-7.75-.17-15.42-.09-23.15.44S80.59,98.3,72.92,99c-6.7.64-13.36,1.59-20.05,2.33-2.27.81-4.84.94-7.11,1.75-.86.31-1.71.65-2.54,1a9.5,9.5,0,0,0-.28,7.36.4.4,0,0,1,0,.3.32.32,0,0,1-.21.21.25.25,0,0,1-.25-.18,17.08,17.08,0,0,0-5.93-3.45l-.09.07a1.43,1.43,0,0,1,.35,1.34c1.07,1,.8,3.16-1,3-3.06-.27-6.45-1.66-9.34-.12a9.13,9.13,0,0,0-3.81,4.9,25.16,25.16,0,0,0-1.47,6,17.3,17.3,0,0,0,3.12,4.94c3.13,3.5,7.29,5.86,11.29,8.32s8,5.17,10.58,9.09c1.15,1.75,2.19,3.89,4.2,4.46s4.08-.72,5.13-2.47A14.13,14.13,0,0,0,57,142c5.79,4.94,10.88,10.38,16.67,15.32,1.08.92,2.23,1.95,2.46,3.35.14.82-.07,1.68.11,2.49s1,1.6,1.76,1.26c1.53.22,3,.43,4.58.62a222.65,222.65,0,0,0,25.29,1.68c4.08,0,8.18-.23,12.25-.13a11,11,0,0,0,4.83-.82,10.1,10.1,0,0,0,2.21-1.32c.25-.21,1.31-1.54,1.53-1.54-10.24.15-20.47.45-30.7-.24-5.56-.37-11.31-1.13-16.39-3.56a26.11,26.11,0,0,1-10.12-9,40.5,40.5,0,0,1-5.3-12.1c-1.15-4.27-2.33-9.16-1.48-13.58C67,112.5,82.11,114.88,90.9,113c10.67-2.34,21.22-6.07,32.28-4.15a4.2,4.2,0,0,1,1.07.35,26.73,26.73,0,0,1,8.16-7.94c5.33-3.11,10.44,5,5.12,8.1-4.26,2.49-7.22,7.78-9.59,12.61a117.49,117.49,0,0,0-4.74,10.84c7.15-1,14.39-1.86,21.36.42,2.26.73,4.43,3.18,3.54,5.76a33.21,33.21,0,0,0-1.69,9.21c-.1,2.3,1.09,4.8-.72,6.69a10.14,10.14,0,0,1-3.27,2l-9.76,4.33a53,53,0,0,0,9.08.44c8.65-.59,15.69-7.21,18.53-15.21a90.76,90.76,0,0,0,3.69-15c1.6-9.5,1-20-6.94-26.64M34.79,127.63a12.55,12.55,0,0,1-3.35-4.54,4.6,4.6,0,0,1,.19-4.14,5.27,5.27,0,0,1,2.6-1.8,14.88,14.88,0,0,1,9.64,0q2.57,6,5.14,12.06a27.67,27.67,0,0,0,4.14,7.47,36.58,36.58,0,0,1-18.36-9.1" transform="translate(-20.12 -27.32)"/><path class="cls-6" d="M129,164.64a48.7,48.7,0,0,1-11.24.44c-5.94-.27-11.87-.67-17.81-.89-4.91-.18-9.68-.29-14.37-1.92a44.58,44.58,0,0,1-19-13.05,44.38,44.38,0,0,1-9.41-10.7c-4.11-6.41-7.06-14-7.16-21.68a2.5,2.5,0,0,1,2.34-2.52,26.15,26.15,0,0,1,5.15-.19,41.81,41.81,0,0,1,7.88-.52c.84,0,1.69,0,2.55,0a20.08,20.08,0,0,1,2.93-.81c-3.91-.25-7.8-.66-11.72-.89a45.2,45.2,0,0,1-9.12-1.25c-1.93-.52-4.94-1.25-5.76-3.37-1.44-3.72,4.42-4.81,6.77-5.28,2.81-.55,5.63-1,8.46-1.48-2.22.28-4.43.55-6.65.79-2.27.81-4.84.94-7.11,1.75-.86.31-1.71.65-2.54,1a9.5,9.5,0,0,0-.28,7.36.4.4,0,0,1,0,.3.32.32,0,0,1-.21.21.25.25,0,0,1-.25-.18,18.74,18.74,0,0,0-2-1.53,3.65,3.65,0,0,1-.41,2.4c-1,1.79-3.15,2.64-5,3.24-2.83.92-7.36,1.24-6.92,5.27s3.78,7.83,6.48,10.6c3,3.1,6.57,4.92,10.36,7,.85.46,1.74.94,2.62,1.45a17.85,17.85,0,0,1,5.36,3.58A17.81,17.81,0,0,1,56,147,17,17,0,0,0,57,142c5.79,4.94,10.88,10.38,16.67,15.32,1.08.92,2.23,1.95,2.46,3.35a13.49,13.49,0,0,1,0,1.8c2,.47,4,.9,6,1.25a129,129,0,0,0,16.77,1.48c5.68.27,11.33.08,17,.13,4.3,0,8.82.35,13.06-.59a.28.28,0,0,1,0-.09m-94.19-37a12.55,12.55,0,0,1-3.35-4.54,4.6,4.6,0,0,1,.19-4.14,5.27,5.27,0,0,1,2.6-1.8,14.88,14.88,0,0,1,9.64,0q2.57,6,5.14,12.06a27.67,27.67,0,0,0,4.14,7.47,36.58,36.58,0,0,1-18.36-9.1" transform="translate(-20.12 -27.32)"/><path class="cls-6" d="M157.16,104.89a2.23,2.23,0,0,1-1-.48c-3-2.42-7.22-3.11-10.92-3.59-3.94-.52-7.93-.56-11.9-.69-10.23-.36-20.38.35-30.59,1s-20.29,1.09-30.4,2.2c-4.89.54-9.77,1.25-14.62,2-2.06.33-4.16.63-6.2,1.1a10.25,10.25,0,0,0,1.43.42c1.22.24,2.44.41,3.68.53,2.34.21,4.69.26,7,.41,5,.32,9.83,1,14.84.82a2.23,2.23,0,0,1,2,3.34c5-.24,10.06-.24,15.09-.08,9.09-2.22,18.15-4.69,27.58-3a4.2,4.2,0,0,1,1.07.35,26.73,26.73,0,0,1,8.16-7.94c4.36-2.54,8.57,2.41,7.05,6,1.52.79,2.22,3.11.31,4.17-4.13,2.29-6.27,6.74-8.46,10.71-.92,1.67-1.77,3.37-2.56,5.08a63.5,63.5,0,0,1,11.12.12,20.1,20.1,0,0,1,4.79.07c2.56-.28,5.51-.28,7.74,1.08,2.69,1.65,3,4.84,2.76,7.68a138.23,138.23,0,0,1-1.91,14.67,48.94,48.94,0,0,0-.25,5.92,24.72,24.72,0,0,0,7.27-10.31,90.76,90.76,0,0,0,3.69-15c1.59-9.45,1-19.86-6.8-26.52" transform="translate(-20.12 -27.32)"/><path class="cls-6" d="M43.88,137.89c.31.41.6.84.87,1.28,1.09,1.79,2,4,4,4.61a3.7,3.7,0,0,0,2,.06c-1.84-2.63-4.17-5-6.89-6" transform="translate(-20.12 -27.32)"/><path class="cls-7" d="M154,105.38c0,3.42-24.63,6.37-55.08,6.58s-55.15-2.4-55.17-5.83,24.64-6.37,55.08-6.58S154,102,154,105.38" transform="translate(-20.12 -27.32)"/><path class="cls-8" d="M82,50.78a1.14,1.14,0,0,0-1.33-1,18.88,18.88,0,0,0-12.5,8.48,23.22,23.22,0,0,0-3,7.69A39.87,39.87,0,0,0,64.48,74c0,5.34.72,10.55.54,15.66a31.58,31.58,0,0,1-1.11,7.47,19.11,19.11,0,0,1-2.63,5.7,1.14,1.14,0,0,0,.22,1.56l.09.07a1.14,1.14,0,0,0,1.65-.23,21.55,21.55,0,0,0,3-6.44,34,34,0,0,0,1.18-8c.18-5.38-.54-10.61-.57-15.75a37.37,37.37,0,0,1,.65-7.58,20.91,20.91,0,0,1,2.63-6.93A16.56,16.56,0,0,1,81,52,1.15,1.15,0,0,0,82,50.78" transform="translate(-20.12 -27.32)"/><path class="cls-8" d="M83.58,56.9a4,4,0,0,1,3-.23,6.59,6.59,0,0,1,4.08,4.2,1.14,1.14,0,0,0,1.37.68l.48-.14a1.15,1.15,0,0,0,.76-1.52,11.07,11.07,0,0,0-1.75-3.09,8.87,8.87,0,0,0-1.83-1.73A8,8,0,0,0,87.41,54a6.81,6.81,0,0,0-5.23.46,6.17,6.17,0,0,0-2,1.84,5.76,5.76,0,0,0-1,2.61,5.57,5.57,0,0,0,0,1.47,6,6,0,0,0,.39,1.32,13.52,13.52,0,0,0,1.14,2.09,40.73,40.73,0,0,1,2,3.57,36.57,36.57,0,0,1,1.6,3.76A33.94,33.94,0,0,1,85.48,75a36.26,36.26,0,0,1,.22,16.22,36.67,36.67,0,0,1-6.14,13.83,1.14,1.14,0,0,0,.24,1.57l.62.48a1.15,1.15,0,0,0,1.64-.25,40.11,40.11,0,0,0,6.59-15,39.3,39.3,0,0,0-.32-17.53A38.75,38.75,0,0,0,87,70.09,37.34,37.34,0,0,0,85.29,66a41.13,41.13,0,0,0-2.18-3.83,10.23,10.23,0,0,1-.91-1.63,3.18,3.18,0,0,1-.22-.71,2,2,0,0,1,0-.65,3.2,3.2,0,0,1,1.61-2.31" transform="translate(-20.12 -27.32)"/><path class="cls-8" d="M106.21,80a10.78,10.78,0,0,0-6.5-3.42,9.21,9.21,0,0,0-3.83.36,7.89,7.89,0,0,0-3.38,2.11,7.06,7.06,0,0,0-1.78,3.69A6.29,6.29,0,0,0,91.45,87a6,6,0,0,0,5.66,2.88,6.31,6.31,0,0,0,.85-.15A1.15,1.15,0,0,0,98.63,88L98.06,87a1.14,1.14,0,0,0-1.16-.51,2.57,2.57,0,0,1-1.09-.07,2.67,2.67,0,0,1-1.57-1.14,3.14,3.14,0,0,1-.36-2.06,4,4,0,0,1,.94-2,5.41,5.41,0,0,1,4.55-1.55,7.79,7.79,0,0,1,4.69,2.42,9.86,9.86,0,0,1,1.63,2.26,10.83,10.83,0,0,1,1,2.66,15.58,15.58,0,0,1,.1,5.86A25.9,25.9,0,0,1,105,98.71c-.66,1.58-1.43,3.14-2.22,4.71a1.14,1.14,0,0,0,.49,1.53l.32.17a1.14,1.14,0,0,0,1.54-.49c.83-1.57,1.65-3.18,2.37-4.85a28.47,28.47,0,0,0,2-6.45,18.21,18.21,0,0,0,0-6.94A13.2,13.2,0,0,0,106.21,80" transform="translate(-20.12 -27.32)"/><path class="cls-8" d="M122,60.63a12.12,12.12,0,0,1,11.39-3.47,1.16,1.16,0,0,0,1.38-.73l.3-.88a1.14,1.14,0,0,0-.78-1.49,15.27,15.27,0,0,0-14.63,4.43A16.29,16.29,0,0,0,115.94,66a25.75,25.75,0,0,0-.38,8.15c.56,5.36,2.26,10.28,3.15,15.18a30.44,30.44,0,0,1,.56,7.28,16.81,16.81,0,0,1-1.31,5.8,1.15,1.15,0,0,0,.5,1.48l.61.33a1.14,1.14,0,0,0,1.59-.53,19.92,19.92,0,0,0,1.62-6.89,33.91,33.91,0,0,0-.57-8c-.95-5.19-2.59-10.06-3.06-14.94a23.08,23.08,0,0,1,.35-7.15,13.19,13.19,0,0,1,3-6.08" transform="translate(-20.12 -27.32)"/><path class="cls-8" d="M141.4,79.45a15.11,15.11,0,0,0-1.61-3.31,14.49,14.49,0,0,0-1.12-1.49,10.78,10.78,0,0,0-1.37-1.33,8.57,8.57,0,0,0-3.54-1.77,6.45,6.45,0,0,0-2.11-.12,6.3,6.3,0,0,0-2.05.6,6.93,6.93,0,0,0-3,2.8A6.25,6.25,0,0,0,125.8,79a6.94,6.94,0,0,0,4.33,5.24,1.15,1.15,0,0,0,1.52-.94l.07-.55a1.14,1.14,0,0,0-.73-1.2,4.09,4.09,0,0,1-1.28-.85,4.18,4.18,0,0,1-1.17-2.17A3.41,3.41,0,0,1,129,76.2a4.29,4.29,0,0,1,1.82-1.71,3.6,3.6,0,0,1,2.4-.29,6,6,0,0,1,2.42,1.22,9.32,9.32,0,0,1,1.94,2.19,11.87,11.87,0,0,1,1.34,2.72,16.91,16.91,0,0,1,.9,6.15,31.4,31.4,0,0,1-.89,6.39c-.88,3.91-2.24,7.83-3,12a1.16,1.16,0,0,0,1,1.34l.2,0a1.16,1.16,0,0,0,1.29-.93c.68-3.91,2-7.79,3-11.87a35,35,0,0,0,1-6.9,19.84,19.84,0,0,0-1-7.1" transform="translate(-20.12 -27.32)"/><path class="cls-9" d="M62.6,103.38l-.09-.07a1.15,1.15,0,0,1-.21-1.56,19.62,19.62,0,0,0,2.63-5.7A31.57,31.57,0,0,0,66,88.58c.19-5.11-.51-10.32-.53-15.66a38.48,38.48,0,0,1,.71-8.06,23.12,23.12,0,0,1,2.94-7.69A17.73,17.73,0,0,1,70.78,55a17.88,17.88,0,0,0-2.64,3.3,23.14,23.14,0,0,0-3,7.69A39.87,39.87,0,0,0,64.48,74c0,5.34.72,10.55.54,15.66a31.58,31.58,0,0,1-1.11,7.47,19.11,19.11,0,0,1-2.63,5.7,1.14,1.14,0,0,0,.22,1.56l.09.07a1.14,1.14,0,0,0,1.65-.23c.15-.22.3-.44.44-.67a1.15,1.15,0,0,1-1.08-.19" transform="translate(-20.12 -27.32)"/><path class="cls-9" d="M72.5,56.51A16.73,16.73,0,0,1,81,52,1.17,1.17,0,0,0,82,51a16.75,16.75,0,0,0-9.48,5.55" transform="translate(-20.12 -27.32)"/><path class="cls-9" d="M81.44,106l-.62-.48a1.14,1.14,0,0,1-.24-1.57,37,37,0,0,0,6.14-13.83,36.26,36.26,0,0,0-.22-16.22A38.4,38.4,0,0,0,85.32,70a34.56,34.56,0,0,0-1.61-3.76,35.82,35.82,0,0,0-2-3.57,13.52,13.52,0,0,1-1.14-2.09,6.13,6.13,0,0,1-.39-1.32,5.17,5.17,0,0,1,0-1.47,5.65,5.65,0,0,1,1-2.61l0-.06a6.09,6.09,0,0,0-1.06,1.15,5.76,5.76,0,0,0-1,2.61,5.57,5.57,0,0,0,0,1.47,6,6,0,0,0,.39,1.32,13.52,13.52,0,0,0,1.14,2.09,40.73,40.73,0,0,1,2,3.57,36.57,36.57,0,0,1,1.6,3.76A33.94,33.94,0,0,1,85.48,75a36.26,36.26,0,0,1,.22,16.22,36.67,36.67,0,0,1-6.14,13.83,1.14,1.14,0,0,0,.24,1.57l.62.48a1.15,1.15,0,0,0,1.64-.25c.16-.22.31-.45.47-.68a1.13,1.13,0,0,1-1.09-.16" transform="translate(-20.12 -27.32)"/><path class="cls-9" d="M93.07,60.46a1.13,1.13,0,0,1-1.36-.68,6.6,6.6,0,0,0-4.09-4.2,4,4,0,0,0-3,.23A3.4,3.4,0,0,0,83.35,57l.23-.14a4,4,0,0,1,3-.23,6.59,6.59,0,0,1,4.08,4.2,1.14,1.14,0,0,0,1.37.68l.48-.14a1.14,1.14,0,0,0,.84-1Z" transform="translate(-20.12 -27.32)"/><path class="cls-9" d="M104.61,104l-.31-.17a1.14,1.14,0,0,1-.5-1.53c.8-1.57,1.57-3.13,2.22-4.71a26.09,26.09,0,0,0,1.76-5.84,15.58,15.58,0,0,0-.1-5.86,10.83,10.83,0,0,0-1-2.66A9.61,9.61,0,0,0,105.07,81a7.73,7.73,0,0,0-4.69-2.42,5.4,5.4,0,0,0-4.54,1.55,3.45,3.45,0,0,0-.39.53,5.65,5.65,0,0,1,3.92-1,7.79,7.79,0,0,1,4.69,2.42,9.86,9.86,0,0,1,1.63,2.26,10.83,10.83,0,0,1,1,2.66,15.58,15.58,0,0,1,.1,5.86A25.9,25.9,0,0,1,105,98.71c-.66,1.58-1.43,3.14-2.22,4.71a1.14,1.14,0,0,0,.49,1.53l.32.17a1.14,1.14,0,0,0,1.54-.49l.27-.51a1.18,1.18,0,0,1-.8-.09" transform="translate(-20.12 -27.32)"/><path class="cls-9" d="M98.13,88.74a6.09,6.09,0,0,1-2.22-.22,6,6,0,0,1-3.45-2.66,6.36,6.36,0,0,1-.72-4.17,7,7,0,0,1,1.33-3.14,7.27,7.27,0,0,0-.57.54,7.06,7.06,0,0,0-1.78,3.69A6.3,6.3,0,0,0,91.45,87a6,6,0,0,0,5.66,2.88,6.31,6.31,0,0,0,.85-.15,1.15,1.15,0,0,0,.84-1.06,3.76,3.76,0,0,1-.67.12" transform="translate(-20.12 -27.32)"/><path class="cls-9" d="M134.43,56.07A12.13,12.13,0,0,0,123,59.53c-.15.16-.28.33-.42.5a12.15,12.15,0,0,1,10.79-2.87,1.16,1.16,0,0,0,1.38-.73l.12-.34a1.29,1.29,0,0,1-.48,0" transform="translate(-20.12 -27.32)"/><path class="cls-9" d="M120.09,103.15l-.61-.33a1.15,1.15,0,0,1-.5-1.48,16.86,16.86,0,0,0,1.3-5.8,30.42,30.42,0,0,0-.55-7.28c-.9-4.9-2.6-9.82-3.16-15.18a26.35,26.35,0,0,1,.38-8.15,16.61,16.61,0,0,1,3.39-7.11c-.22.21-.45.43-.66.67A16.29,16.29,0,0,0,115.94,66a25.75,25.75,0,0,0-.38,8.15c.56,5.36,2.26,10.28,3.15,15.18a30.44,30.44,0,0,1,.56,7.28,16.81,16.81,0,0,1-1.31,5.8,1.15,1.15,0,0,0,.5,1.48l.61.33a1.14,1.14,0,0,0,1.59-.53c.07-.15.13-.3.19-.45a1.13,1.13,0,0,1-.76-.11" transform="translate(-20.12 -27.32)"/><path class="cls-9" d="M131.15,83.14a6.94,6.94,0,0,1-4.33-5.24,6.18,6.18,0,0,1,.77-4.16c.15-.25.31-.48.47-.7a7.11,7.11,0,0,0-1.48,1.79A6.25,6.25,0,0,0,125.8,79a6.94,6.94,0,0,0,4.33,5.24,1.15,1.15,0,0,0,1.52-.94l0-.09a1.16,1.16,0,0,1-.52-.06" transform="translate(-20.12 -27.32)"/><path class="cls-9" d="M138.14,105.15l-.2,0a1.16,1.16,0,0,1-1-1.34c.7-4.18,2.07-8.1,2.95-12a32.22,32.22,0,0,0,.89-6.4,16.85,16.85,0,0,0-.9-6.14,11.87,11.87,0,0,0-1.34-2.72,9.14,9.14,0,0,0-1.95-2.19,5.9,5.9,0,0,0-2.42-1.22,3.57,3.57,0,0,0-2.39.29,4.26,4.26,0,0,0-1.7,1.51,4,4,0,0,1,.68-.42,3.6,3.6,0,0,1,2.4-.29,6,6,0,0,1,2.42,1.22,9.32,9.32,0,0,1,1.94,2.19,11.87,11.87,0,0,1,1.34,2.72,16.91,16.91,0,0,1,.9,6.15,32.12,32.12,0,0,1-.89,6.39c-.88,3.91-2.24,7.83-3,12a1.16,1.16,0,0,0,1,1.34l.2,0a1.16,1.16,0,0,0,1.29-.93l0-.17a1,1,0,0,1-.3,0" transform="translate(-20.12 -27.32)"/><path class="cls-3" d="M312.76,133.06a34.41,34.41,0,0,0,9.37,14.71c2.15,1.93,4.77,3,7,4.84a49,49,0,0,0,8.1,4.87s-.74,2.85-.76,3.13c-.31,3,.89,3.63,3.54,4.42a57.14,57.14,0,0,0,8.15,1.84A116,116,0,0,0,371,168.1c7.12-.33,14.43-.9,21-3.94a5,5,0,0,0,2.24-1.68,1.87,1.87,0,0,0-.38-2.53c.65.39,5.58-3,6.33-3.41q3.36-2,6.54-4.27a134.11,134.11,0,0,0,11.44-9.4,15,15,0,0,0,1.57,6c1.07,1.78,3.18,3.07,5.12,2.48s3-2.81,4.1-4.62c2.49-4.05,6.43-6.87,10.36-9.43s8-5,11.06-8.64,4.92-8.7,3.52-13.28a11.72,11.72,0,0,0-9.75-7.89,15.19,15.19,0,0,0-11.95,4.35.25.25,0,0,1-.25.18.32.32,0,0,1-.21-.21.41.41,0,0,1-.05-.3,10,10,0,0,0-2.7-10.7c-2.69-2.34-6.41-2.9-9.91-3.31a349.32,349.32,0,0,0-42-2.33c-11.1,0-23.27-.34-34.25,1.57-1.79.31-5.82.8-7.64,1.1-2.32.38-5.09.74-7.38,1.31-4.49,1.14-5.59,3.62-9.14,6.75-7.84,6.93-9,17.62-5.88,27.15m109.15,4.39a28.79,28.79,0,0,0,4-7.7q2.46-6.21,4.93-12.4a14.21,14.21,0,0,1,9.54-.16A5.12,5.12,0,0,1,443,119a4.87,4.87,0,0,1,.26,4.24,13.15,13.15,0,0,1-3.26,4.68,35.74,35.74,0,0,1-18.07,9.53" transform="translate(-20.12 -27.32)"/><path class="cls-4" d="M404.33,127.53c0-.23-.1-.46-.16-.69s-.14-.49-.22-.72c.19.39.16.32-.11-.22a8.18,8.18,0,0,0-.73-1.2s-.82-.86-.76-.8c-.25-.24-.69-.61-.88-.75-3.34-2.44-8.26-3.48-12.32-4.06a29.83,29.83,0,0,0-14.91,1.65c-5.19,2-10.39,4.49-13.65,9.16-2.07,3-3.6,6.29-5.66,9.27s-4.83,5.7-8.33,6.61a3.51,3.51,0,0,0,.52,3.8,8.92,8.92,0,0,0,3.32,2.31A40.14,40.14,0,0,0,396,143.77c3.81-3.81,8-8.91,8.38-14.51a11.11,11.11,0,0,0,0-1.73" transform="translate(-20.12 -27.32)"/><path class="cls-4" d="M374.54,111.79a.57.57,0,0,0-.13-.08,56.84,56.84,0,0,1-9.92.23A71.23,71.23,0,0,1,350,109.87a59.82,59.82,0,0,1-10.42.42,9.78,9.78,0,0,1-.76,2.5c.78.39,1.55.82,2.32,1.24a17.66,17.66,0,0,1,3.32,1.16c9.25,0,18.5.81,27.74.3q.88,0,1.77-.12a2.81,2.81,0,0,1,1.5-.47c.94,0,3-.37,3.38-1.31a26.43,26.43,0,0,1-4.35-1.8" transform="translate(-20.12 -27.32)"/><path class="cls-4" d="M332.08,109.92h-.37a3,3,0,0,1-.82-.11c-.33.12-.66.25-1,.41a10.72,10.72,0,0,0-1.92,2l1.08.56a11,11,0,0,0,.94-.71,15.07,15.07,0,0,0,2.09-2.16" transform="translate(-20.12 -27.32)"/><path class="cls-4" d="M431.69,111.52a10,10,0,0,0-2.7-10.7c-2.7-2.35-6.41-2.9-9.91-3.31a349.32,349.32,0,0,0-42-2.33c-11.1,0-23.27-.34-34.25,1.57-1.79.31-5.82.8-7.64,1.1-2.32.38-5.09.74-7.38,1.31a12.11,12.11,0,0,0-1.67.55c.47,0,.94,0,1.41,0a3.38,3.38,0,0,1,.73.11c4,0,8,.14,11.88-.23,7.75-2.72,16.06-3.1,24.39-3.41,7.24-.26,14.64-.54,21.85.36,7.8.26,15.59.8,23.43,1.29,5.19.32,11.33.49,15.83,3.42,4.84,3.15,4.48,8.43,1.7,12.43a14.21,14.21,0,0,1,.31,1.9,15.23,15.23,0,0,1,.05,1.91c.21-.43.41-.86.6-1.3a2.24,2.24,0,0,1,1.5-1.27c.3-.7.63-1.39,1-2.08a2.5,2.5,0,0,1,1-1l0-.08a.41.41,0,0,1-.05-.3" transform="translate(-20.12 -27.32)"/><path class="cls-4" d="M341.75,121.08c-.41-.06-.81-.12-1.21-.2a3.1,3.1,0,0,1-.9.78,4.14,4.14,0,0,1,.44.5c.59-.3,1.17-.58,1.75-.84l.53-.22a3.19,3.19,0,0,1-.61,0" transform="translate(-20.12 -27.32)"/><path class="cls-4" d="M423.92,133.44l.57-.28c.43-.93.82-1.88,1.2-2.84-.72.9-1.44,1.8-2.14,2.71a2.86,2.86,0,0,1,.37.41" transform="translate(-20.12 -27.32)"/><path class="cls-4" d="M426.07,149.82a3.16,3.16,0,0,1-.69.43,2.81,2.81,0,0,1-.23,1,7,7,0,0,0,3-3.22c-.7.6-1.4,1.2-2.12,1.79" transform="translate(-20.12 -27.32)"/><path class="cls-4" d="M418.33,144.19c0,.24.07.48.11.72.61-.75,1.21-1.51,1.81-2.27-.65.51-1.28,1-1.92,1.55" transform="translate(-20.12 -27.32)"/><path class="cls-4" d="M453.9,115.39a11.72,11.72,0,0,0-9.75-7.89,15.14,15.14,0,0,0-11.74,4.16,3.24,3.24,0,0,1,2.89.61c3.67-3.31,8-5.41,12.81-2a7.21,7.21,0,0,1,2.77,3.5l.18.2c3.53,4.46-.2,9.89-3.36,13.32a53,53,0,0,1-4.76,4.48,3.24,3.24,0,0,1-.69,1.55q-1.9,2.34-3.92,4.6l1-.65c3.92-2.56,8-5,11.06-8.64s4.92-8.7,3.52-13.28" transform="translate(-20.12 -27.32)"/><path class="cls-5" d="M429.52,142.79c-3.12,1-7.06,3.34-7.41,7a2.34,2.34,0,0,1-.39,1.12,3.94,3.94,0,0,0,3.14.49c2-.62,3-2.81,4.1-4.62a22.79,22.79,0,0,1,4.7-5.33c-1.36.49-2.74.94-4.14,1.38" transform="translate(-20.12 -27.32)"/><path class="cls-5" d="M448.39,115.52c-2.84-4.24-9.77-.63-13.74-.91a2.35,2.35,0,0,1-2.31-2.31c0-.22,0-.43.07-.64-.07.07-.15.12-.21.19a.25.25,0,0,1-.25.18.32.32,0,0,1-.21-.21.41.41,0,0,1-.05-.3,10.15,10.15,0,0,0-.54-7.9,99.24,99.24,0,0,0-15.87-4A200.45,200.45,0,0,0,375,96.85c-6.64.13-13.29.28-19.93.56a72.84,72.84,0,0,0-19.19,2.89,2.1,2.1,0,0,1-1.63-.09l-.25.09a2,2,0,0,1-2.77-1.83c-1.2.2-2.38.42-3.45.69-4.49,1.14-5.59,3.62-9.14,6.75-7.84,6.93-9,17.62-5.88,27.15a34.41,34.41,0,0,0,9.37,14.71c2.15,1.93,4.77,3,7,4.84a49,49,0,0,0,8.1,4.87s-.74,2.85-.76,3.13c-.31,3,.89,3.63,3.54,4.42.62.19,1.24.37,1.87.53-.9-.46-1.61-1.1-1.58-2,.06-1.77,2.85-1.67,4-1.42,3,.63,5.83,1.67,8.88,2.18a62.45,62.45,0,0,0,11.18.71,80.23,80.23,0,0,0,21.92-2.88,1,1,0,0,1,1.22,1,.93.93,0,0,1,.18.55c0,1.38-1.34,2.12-2.65,2.57a2.15,2.15,0,0,1-.14.26,35.73,35.73,0,0,0,7.13-2.37,5,5,0,0,0,2.24-1.68,1.87,1.87,0,0,0-.38-2.53c.65.39,5.58-3,6.33-3.41q3.36-2,6.54-4.27a134.11,134.11,0,0,0,11.44-9.4,29.35,29.35,0,0,0,.45,3,14.1,14.1,0,0,1,4.81-5.25c3.53-2.41,7.94-2.89,11.78-4.67a46,46,0,0,0,11.26-7.5,39.43,39.43,0,0,0,1.48-3.72c.89-2.63,2.15-6.62.44-9.17m-28,10C417,132,411.79,138,406.61,143.2c-.75.75-1.52,1.48-2.32,2.18-8,8.82-19.71,13.33-31.41,14.84a114.74,114.74,0,0,1-12.7,1.12,71.82,71.82,0,0,1-10.25-.75c-4.89-.59-10.84-1.1-13.9-5.47a10.5,10.5,0,0,1-1.59-1.54,3.06,3.06,0,0,1-.65-1.41c-.15-.19-.3-.39-.44-.6l-.07-.13a1.58,1.58,0,0,1-.8-1.15c-.08-.54-.15-1.08-.22-1.62-.06-.33-.11-.67-.14-1q-1.29-9.9-1.6-19.88a1.94,1.94,0,0,1,0-.24,2,2,0,0,1,1.59-3.24c6.86,0,13.7-1,20.56-1.1a46.27,46.27,0,0,0-5.95-7.71,2,2,0,0,1-1,.29h-.27a2,2,0,0,1-1.43-3.44,1.5,1.5,0,0,1,.24-.2c-.32-1.81,1.92-3.61,3.3-1.89l.82,1a2,2,0,0,1,1.52-.76c3.87-.14,7.67.56,11.53.62s7.47-.12,11.17-.43a121.14,121.14,0,0,0,22.59-4.09c2.51-.7,3.57,3.19,1.07,3.89q-4.69,1.3-9.47,2.25c7.23.44,14.6,1.1,21.73.2a29.25,29.25,0,0,1,6.39-.36A29.76,29.76,0,0,0,418,112a3.17,3.17,0,0,1,.9-.08,4.06,4.06,0,0,1,4.16,3.79c.38,3.5-1,6.78-2.65,9.82m22.83-2.29a13.15,13.15,0,0,1-3.26,4.68,35.74,35.74,0,0,1-18.07,9.53,28.79,28.79,0,0,0,4-7.7q2.46-6.21,4.93-12.4a14.21,14.21,0,0,1,9.54-.16A5.12,5.12,0,0,1,443,119a4.87,4.87,0,0,1,.26,4.24" transform="translate(-20.12 -27.32)"/><path class="cls-5" d="M439.44,108.37a31.59,31.59,0,0,1,3.46-1,12.93,12.93,0,0,0-3.34.38,3.06,3.06,0,0,1-.12.57" transform="translate(-20.12 -27.32)"/><path class="cls-6" d="M428.66,145.07a12.53,12.53,0,0,0-3.36,2.69,9.75,9.75,0,0,1-3.19,2.74l-.23.09c-.05.09-.1.19-.16.28a3.94,3.94,0,0,0,3.14.49c2-.62,3-2.81,4.1-4.62A19.55,19.55,0,0,1,431,144a17.72,17.72,0,0,0-2.38,1.11" transform="translate(-20.12 -27.32)"/><path class="cls-6" d="M316.41,109.82c.53-.91,1.1-1.8,1.7-2.66a3.93,3.93,0,0,1-.19-.58,21.26,21.26,0,0,0-4.37,6,14.11,14.11,0,0,1,2.86-2.76" transform="translate(-20.12 -27.32)"/><path class="cls-6" d="M337.7,113.24a13.94,13.94,0,0,1-2.62-.47,9.89,9.89,0,0,1-3.34-1.74c-.54.11-1.09.22-1.65.31l-.65.11c-1.39.23-2.81.45-4.17.75-.1.23-.19.47-.28.7-1.33,3.54-2.65,7.09-3.73,10.72-2,6.67-3.48,13.88-2.3,20.83a30.09,30.09,0,0,0,3.17,3.32c2.15,1.93,4.77,3,7,4.84a32.17,32.17,0,0,0,5.13,3.29,10.78,10.78,0,0,1-.74-1c-2.13-3.31-3.09-7.47-3.82-11.29a79.41,79.41,0,0,1-1.4-13c-.06-2.32-.46-6.92,1.49-8.67.87-.77,2.4-.8,3.48-.88,1.89-.14,3.77.22,5.66.25,2.48,0,5.15.39,7.71.31-2.91-2.85-6.16-5.38-8.91-8.42" transform="translate(-20.12 -27.32)"/><path class="cls-6" d="M339,161.53c2.33-1,5.25.22,7.63.39a33.43,33.43,0,0,0,3.61,0c-4.54-.59-9.49-.95-13.21-3.83-.21.85-.57,2.33-.59,2.53-.17,1.65.11,2.57.81,3.2,0-.9.43-1.71,1.75-2.28" transform="translate(-20.12 -27.32)"/><path class="cls-6" d="M419,141.8c1.78-2.16,4.25-3.18,6.81-4.14a50,50,0,0,0,9.33-4.9c4.7-3,10.24-6.8,9.63-13.08-.23-2.35-1.13-4.6-3.76-4.68-3.05-.08-5.91,1.09-8.92,0a2.91,2.91,0,0,1-1.72-4.21,15.25,15.25,0,0,1,1.88-2.75v-.11a1.54,1.54,0,0,1-.19.17A18,18,0,0,1,425,111.2l-.11,0a4.77,4.77,0,0,1,2.23,2.06c1.42,2.63.35,5.93-.67,8.48a76.71,76.71,0,0,1-4.1,9.33,49.67,49.67,0,0,1-6.15,7.95,92.71,92.71,0,0,1-14.88,13.74,45.64,45.64,0,0,1-8.15,4.92,32.34,32.34,0,0,1-7.48,2,60,60,0,0,1-15.87,3.56A58.44,58.44,0,0,0,380,162.14c3.14-.68,6.41-1.68,9.62-.84a2.08,2.08,0,0,1,.9,3.44l-.1.11c.54-.22,1.08-.45,1.61-.69a5,5,0,0,0,2.24-1.68,1.87,1.87,0,0,0-.38-2.53c.65.39,5.58-3,6.33-3.41q3.36-2,6.54-4.27a132.7,132.7,0,0,0,11.38-9.35c.29-.39.59-.76.88-1.12m6.93-12.05q2.46-6.21,4.93-12.4a14.21,14.21,0,0,1,9.54-.16A5.12,5.12,0,0,1,443,119a4.88,4.88,0,0,1,.26,4.24,13.15,13.15,0,0,1-3.26,4.68,35.74,35.74,0,0,1-18.07,9.53,28.79,28.79,0,0,0,4-7.7" transform="translate(-20.12 -27.32)"/><path class="cls-6" d="M439.44,108.37a31.59,31.59,0,0,1,3.46-1,12.93,12.93,0,0,0-3.34.38,3.06,3.06,0,0,1-.12.57" transform="translate(-20.12 -27.32)"/><path class="cls-7" d="M321.65,106.5c0,3.51,24.48,6.24,54.63,6.11s54.57-3.08,54.55-6.59-24.48-6.24-54.63-6.11-54.57,3.08-54.55,6.59" transform="translate(-20.12 -27.32)"/><path class="cls-8" d="M401.51,58.3a1.09,1.09,0,0,0,1.5-.1,6.42,6.42,0,0,1,5.32-2.4A3.88,3.88,0,0,1,411,57.2a3.41,3.41,0,0,1,.62,2.81,2.73,2.73,0,0,1-.26.61,3.47,3.47,0,0,1-.47.59,10.25,10.25,0,0,1-1.44,1.19A41,41,0,0,0,406,65.18a41,41,0,0,0-5.87,6.65,40.7,40.7,0,0,0-6.85,16.49,42.29,42.29,0,0,0,.43,16.77,1.15,1.15,0,0,0,1.41.87l.75-.21a1.17,1.17,0,0,0,.8-1.39,39,39,0,0,1-.46-15.49,37.62,37.62,0,0,1,6.27-15.27,38.14,38.14,0,0,1,5.42-6.19,36.51,36.51,0,0,1,3.19-2.6,14.08,14.08,0,0,0,1.82-1.54,6,6,0,0,0,.85-1.1,5.25,5.25,0,0,0,.58-1.38,5.94,5.94,0,0,0,0-2.87,6.46,6.46,0,0,0-1.18-2.53,6.64,6.64,0,0,0-4.61-2.47,7.73,7.73,0,0,0-2.54.16,8.92,8.92,0,0,0-2.33.92A11.38,11.38,0,0,0,401,56.25a1.22,1.22,0,0,0,.14,1.74Z" transform="translate(-20.12 -27.32)"/><path class="cls-8" d="M420.59,73.29a.68.68,0,0,1-.88-.47,4.75,4.75,0,0,0-2.75-3,2.14,2.14,0,0,0-1.89.27,2.47,2.47,0,0,0-.91,1.79,2.74,2.74,0,0,0,0,.5,3.23,3.23,0,0,0,.17.53,8.05,8.05,0,0,0,.65,1.2c.54.91,1.07,1.85,1.53,2.83a32,32,0,0,1,1.28,3c.38,1,.72,2.08,1,3.15a35.81,35.81,0,0,1,1,13.24,33.27,33.27,0,0,1-3.46,11.55.64.64,0,0,1-1,.24l-.41-.34a1,1,0,0,1-.22-1.18,30.87,30.87,0,0,0,3.23-10.65,32.88,32.88,0,0,0-.87-12.25,29.06,29.06,0,0,0-.91-2.92,30,30,0,0,0-1.17-2.8c-.43-.91-.92-1.77-1.43-2.63a12.8,12.8,0,0,1-.81-1.54,6,6,0,0,1-.3-1,4.62,4.62,0,0,1-.08-1.11,4.86,4.86,0,0,1,.52-2,4.26,4.26,0,0,1,1.2-1.45,3.59,3.59,0,0,1,3.25-.51,4.75,4.75,0,0,1,1.5.77,6.62,6.62,0,0,1,1.23,1.25A9.3,9.3,0,0,1,421.3,72a.9.9,0,0,1-.41,1.17Z" transform="translate(-20.12 -27.32)"/><path class="cls-8" d="M380.55,104.58a1.2,1.2,0,0,0,.48-1.53,17.73,17.73,0,0,1-1.37-5.92,32.43,32.43,0,0,1,.45-7.46c.82-5,2.44-10.08,2.93-15.57a27.57,27.57,0,0,0-.49-8.33,17,17,0,0,0-3.81-7.68,14.78,14.78,0,0,0-7.28-4.35,14.29,14.29,0,0,0-7.26,0,1.18,1.18,0,0,0-.76,1.53l.32.91a1.14,1.14,0,0,0,1.37.73,11.72,11.72,0,0,1,11.32,3.41,13.6,13.6,0,0,1,3.07,6.19,23.84,23.84,0,0,1,.45,7.32c-.4,5-2,10-2.83,15.32a35.66,35.66,0,0,0-.46,8.22,21.26,21.26,0,0,0,1.69,7,1.12,1.12,0,0,0,1.58.52Z" transform="translate(-20.12 -27.32)"/><path class="cls-8" d="M346.86,88.85c.05.55.5.89.91.69a4.09,4.09,0,0,0,1.42-1.21,5.86,5.86,0,0,0,1.14-2.8,5.7,5.7,0,0,0-.49-3.14A4.63,4.63,0,0,0,348,80.3a3.36,3.36,0,0,0-1.22-.43,3.12,3.12,0,0,0-1.26.12,5,5,0,0,0-2.11,1.38,9.07,9.07,0,0,0-.81,1,11.82,11.82,0,0,0-.66,1.15,12.68,12.68,0,0,0-.94,2.52,18.81,18.81,0,0,0-.57,5.38,33.88,33.88,0,0,0,.63,5.21c.6,3.08,1.43,6,1.86,8.95a.71.71,0,0,0,.77.68l.12,0a.87.87,0,0,0,.57-1c-.44-3.16-1.27-6.11-1.82-9.06a30.6,30.6,0,0,1-.57-4.82,16.41,16.41,0,0,1,.51-4.67,11.35,11.35,0,0,1,.78-2.07,6.75,6.75,0,0,1,1.16-1.68,3.48,3.48,0,0,1,1.43-1,1.74,1.74,0,0,1,1.44.19,2.85,2.85,0,0,1,1.09,1.27,3.21,3.21,0,0,1,.27,1.75,3.61,3.61,0,0,1-.69,1.66,2.48,2.48,0,0,1-.76.66.92.92,0,0,0-.43.91Z" transform="translate(-20.12 -27.32)"/><path class="cls-8" d="M356.11,76.11c-.14.91-.94,1.44-1.63,1.07a7.1,7.1,0,0,1-2.39-2.12,9.68,9.68,0,0,1-1.76-4.76,9.15,9.15,0,0,1,1.06-5.18,7.86,7.86,0,0,1,3.3-3.31,5.87,5.87,0,0,1,2.16-.61,5.63,5.63,0,0,1,2.17.3A8.55,8.55,0,0,1,362.57,64a13,13,0,0,1,1.34,1.76,19.41,19.41,0,0,1,1.06,2A21.07,21.07,0,0,1,366.42,72a29.61,29.61,0,0,1,.6,9,52,52,0,0,1-1.46,8.6c-1.25,5.07-2.9,9.84-3.85,14.71a1.21,1.21,0,0,1-1.39,1.08l-.2,0a1.47,1.47,0,0,1-.93-1.75c1-5.21,2.65-10,3.81-14.89a48.93,48.93,0,0,0,1.33-8,26.2,26.2,0,0,0-.55-7.79,17.39,17.39,0,0,0-1.21-3.52,11.91,11.91,0,0,0-1.88-2.89,5.91,5.91,0,0,0-2.43-1.69,3.09,3.09,0,0,0-2.49.19,4.79,4.79,0,0,0-2,2,5,5,0,0,0-.59,2.89,5.8,5.8,0,0,0,1.07,2.81,4.46,4.46,0,0,0,1.27,1.16,1.54,1.54,0,0,1,.69,1.56Z" transform="translate(-20.12 -27.32)"/><path class="cls-9" d="M401.12,58l.39.31a1.09,1.09,0,0,0,1.5-.1,6.42,6.42,0,0,1,5.32-2.4A3.88,3.88,0,0,1,411,57.2a3.53,3.53,0,0,1,.63,1.36,3.39,3.39,0,0,0-.63-2.75,3.88,3.88,0,0,0-2.69-1.4,6.45,6.45,0,0,0-5.32,2.4,1.09,1.09,0,0,1-1.5.1l-.39-.31a1,1,0,0,1-.22-.24,1.2,1.2,0,0,0,.22,1.63" transform="translate(-20.12 -27.32)"/><path class="cls-9" d="M414.37,59.4a5.25,5.25,0,0,1-.58,1.38,5.63,5.63,0,0,1-.85,1.1,14.08,14.08,0,0,1-1.82,1.54,36.51,36.51,0,0,0-3.19,2.6A33.19,33.19,0,0,0,405.06,69a34.71,34.71,0,0,0-2.55,3.25,37.67,37.67,0,0,0-6.27,15.27,39.05,39.05,0,0,0-.55,7.24,39.53,39.53,0,0,1,.55-5.85,37.67,37.67,0,0,1,6.27-15.27,38.14,38.14,0,0,1,5.42-6.19,36.51,36.51,0,0,1,3.19-2.6,14.08,14.08,0,0,0,1.82-1.54,6,6,0,0,0,.85-1.1,5.25,5.25,0,0,0,.58-1.38,6,6,0,0,0,.15-2.18,5.49,5.49,0,0,1-.15.79" transform="translate(-20.12 -27.32)"/><path class="cls-9" d="M396.58,103.81a1.1,1.1,0,0,1-.68.55l-.75.21a1.14,1.14,0,0,1-1.41-.87A42.2,42.2,0,0,1,392.68,95a42.13,42.13,0,0,0,1.06,10.13,1.15,1.15,0,0,0,1.41.87l.75-.21a1.17,1.17,0,0,0,.8-1.39l-.12-.55" transform="translate(-20.12 -27.32)"/><path class="cls-9" d="M419.81,94.9a33.21,33.21,0,0,1-3.46,11.55.64.64,0,0,1-1,.24l-.41-.34-.08-.08c-.05.09-.09.19-.14.29a1,1,0,0,0,.22,1.18l.41.34a.64.64,0,0,0,1-.24,33.27,33.27,0,0,0,3.46-11.55,34.87,34.87,0,0,0,.22-4.58c0,1.07-.1,2.14-.22,3.19" transform="translate(-20.12 -27.32)"/><path class="cls-9" d="M416.16,80.74a29.06,29.06,0,0,1,.91,2.92,33.36,33.36,0,0,1,1.09,7.82,33.28,33.28,0,0,0-1.09-9.21,29.06,29.06,0,0,0-.91-2.92A26.51,26.51,0,0,0,415,76.56a29.12,29.12,0,0,0-1.42-2.64,12.8,12.8,0,0,1-.81-1.54,5.73,5.73,0,0,1-.3-1l0-.25a3.07,3.07,0,0,0-.05.53,4.62,4.62,0,0,0,.08,1.11,6,6,0,0,0,.3,1,12.8,12.8,0,0,0,.81,1.54A28.94,28.94,0,0,1,415,77.94a27.6,27.6,0,0,1,1.18,2.8" transform="translate(-20.12 -27.32)"/><path class="cls-9" d="M421.14,71.61a.64.64,0,0,1-.25.18l-.3.11a.68.68,0,0,1-.88-.46A4.77,4.77,0,0,0,417,68.38a2.11,2.11,0,0,0-1.89.28,2.44,2.44,0,0,0-.91,1.79,2.7,2.7,0,0,0,0,.49c0,.09.05.18.08.28a2.34,2.34,0,0,1,.79-1.18,2.14,2.14,0,0,1,1.89-.27,4.75,4.75,0,0,1,2.75,3,.68.68,0,0,0,.88.47l.3-.12A.9.9,0,0,0,421.3,72l-.16-.39" transform="translate(-20.12 -27.32)"/><path class="cls-9" d="M380.05,70.83a22.67,22.67,0,0,0-.53-5.72,13.6,13.6,0,0,0-3.07-6.19,11.72,11.72,0,0,0-11.32-3.41,1.14,1.14,0,0,1-1.37-.73l-.2-.57a1.21,1.21,0,0,0-.12,1l.32.91a1.14,1.14,0,0,0,1.37.73,11.72,11.72,0,0,1,11.32,3.41,13.6,13.6,0,0,1,3.07,6.19,21.46,21.46,0,0,1,.53,4.33" transform="translate(-20.12 -27.32)"/><path class="cls-9" d="M383,72.71c-.49,5.49-2.11,10.55-2.93,15.57a34.08,34.08,0,0,0-.5,6.42,35.85,35.85,0,0,1,.5-5c.82-5,2.44-10.08,2.93-15.57.09-1.11.12-2.22.1-3.34,0,.65-.05,1.3-.1,1.95" transform="translate(-20.12 -27.32)"/><path class="cls-9" d="M380.93,102.82a1,1,0,0,1-.38.37l-.6.34a1.12,1.12,0,0,1-1.58-.52,21.26,21.26,0,0,1-1.69-7c0-.48-.05-1-.06-1.45,0,.94,0,1.89.06,2.84a21.26,21.26,0,0,0,1.69,7,1.12,1.12,0,0,0,1.58.52l.6-.34a1.2,1.2,0,0,0,.48-1.53c0-.07-.06-.15-.1-.23" transform="translate(-20.12 -27.32)"/><path class="cls-9" d="M344.29,104.51a.71.71,0,0,1-.46.36l-.12,0a.71.71,0,0,1-.77-.69c-.43-2.95-1.26-5.87-1.86-8.95a33.75,33.75,0,0,1-.63-5.2q0,.69,0,1.38a33.88,33.88,0,0,0,.63,5.21c.6,3.08,1.43,6,1.86,8.95a.71.71,0,0,0,.77.68l.12,0a.87.87,0,0,0,.57-1c0-.25-.07-.49-.11-.73" transform="translate(-20.12 -27.32)"/><path class="cls-9" d="M350.33,84.14A5.94,5.94,0,0,1,349.19,87a4.16,4.16,0,0,1-1.42,1.2.6.6,0,0,1-.81-.34,1,1,0,0,0-.15.62l.05.42c.05.55.5.89.91.69a4.09,4.09,0,0,0,1.42-1.21,5.86,5.86,0,0,0,1.14-2.81,6,6,0,0,0,0-1.41v0" transform="translate(-20.12 -27.32)"/><path class="cls-9" d="M348.42,83.45a3,3,0,0,1,.21.64,2.3,2.3,0,0,0,.06-.28,3.21,3.21,0,0,0-.27-1.75,2.85,2.85,0,0,0-1.09-1.27,1.74,1.74,0,0,0-1.44-.19,3.48,3.48,0,0,0-1.43,1,6.94,6.94,0,0,0-1.16,1.68,11.35,11.35,0,0,0-.78,2.07A16.41,16.41,0,0,0,342,90s0,.1,0,.15a15.43,15.43,0,0,1,.5-3.43,11.35,11.35,0,0,1,.78-2.07,6.75,6.75,0,0,1,1.16-1.68,3.48,3.48,0,0,1,1.43-1,1.74,1.74,0,0,1,1.44.19,2.85,2.85,0,0,1,1.09,1.27" transform="translate(-20.12 -27.32)"/><path class="cls-9" d="M360.69,66.49a11.91,11.91,0,0,1,1.88,2.89,17.39,17.39,0,0,1,1.21,3.52,23.89,23.89,0,0,1,.61,4.9,24.7,24.7,0,0,0-.61-6.29A17.09,17.09,0,0,0,362.57,68a11.54,11.54,0,0,0-1.88-2.89,5.84,5.84,0,0,0-2.43-1.7,3.09,3.09,0,0,0-2.49.19,4.76,4.76,0,0,0-2,2,5,5,0,0,0-.59,2.88l0,.22A5.07,5.07,0,0,1,355.77,65a3.09,3.09,0,0,1,2.49-.19,5.91,5.91,0,0,1,2.43,1.69" transform="translate(-20.12 -27.32)"/><path class="cls-9" d="M356.11,74.72c-.14.91-.94,1.45-1.63,1.08a7.24,7.24,0,0,1-2.39-2.13,9.65,9.65,0,0,1-1.76-4.76.49.49,0,0,0,0-.12,9.52,9.52,0,0,0,0,1.51,9.68,9.68,0,0,0,1.76,4.76,7.1,7.1,0,0,0,2.39,2.12c.69.38,1.49-.16,1.63-1.07l.11-.68a1.76,1.76,0,0,0-.09-.83Z" transform="translate(-20.12 -27.32)"/><path class="cls-9" d="M367,79.57a52,52,0,0,1-1.46,8.6c-1.25,5.07-2.9,9.84-3.85,14.71a1.22,1.22,0,0,1-1.39,1.08l-.2,0a1.25,1.25,0,0,1-.84-.79l-.09.43a1.47,1.47,0,0,0,.93,1.75l.2,0a1.22,1.22,0,0,0,1.39-1.08c1-4.87,2.6-9.64,3.85-14.71A52,52,0,0,0,367,81a31.16,31.16,0,0,0,.09-3.35c0,.65,0,1.31-.09,2" transform="translate(-20.12 -27.32)"/><path class="cls-10" d="M131.25,122.43s10.46-20.05,20-27.5,32.45-13.84,32.45-13.84l24.11,38.65L153.16,162,156,124.07Z" transform="translate(-20.12 -27.32)"/><path class="cls-11" d="M131.25,122.43s10.46-20.05,20-27.5,32.45-13.84,32.45-13.84l24.11,38.65L153.16,162,156,124.07Z" transform="translate(-20.12 -27.32)"/><path class="cls-12" d="M159,113.32c6.09,7.94,10,17.14,15.67,25.35a13.27,13.27,0,0,1,2.13,5.05l31-24L183.67,81.09s-22.94,6.39-32.45,13.84a31,31,0,0,0-2.78,2.49c3.51,5.28,6.65,10.81,10.55,15.9" transform="translate(-20.12 -27.32)"/><path class="cls-10" d="M347.33,114.84s-11.84-19.27-21.85-26-33.35-11.53-33.35-11.53L270.8,117.53l57.45,38.31-5.51-37.63Z" transform="translate(-20.12 -27.32)"/><path class="cls-11" d="M347.33,114.84s-11.84-19.27-21.85-26-33.35-11.53-33.35-11.53L270.8,117.53l57.45,38.31-5.51-37.63Z" transform="translate(-20.12 -27.32)"/><path class="cls-13" d="M171.48,113.55c.56.28,35.71,5.16,35.71,5.16L184.45,79.24Z" transform="translate(-20.12 -27.32)"/><path class="cls-14" d="M171.48,113.55c.56.28,35.71,5.16,35.71,5.16L184.45,79.24Z" transform="translate(-20.12 -27.32)"/><path class="cls-12" d="M305,138.17a150.68,150.68,0,0,1,12.9-19.06l0,0c5.3-6.86,9.73-14.57,15.12-21.43a42.9,42.9,0,0,0-6.57-6.24c-9.76-7.11-32.92-12.69-32.92-12.69L270.8,118.26l32.39,23.29c.6-1.13,1.21-2.26,1.83-3.38" transform="translate(-20.12 -27.32)"/><path class="cls-13" d="M306,113.55c-.55.28-35.71,5.16-35.71,5.16L293,79.24Z" transform="translate(-20.12 -27.32)"/><path class="cls-14" d="M306,113.55c-.55.28-35.71,5.16-35.71,5.16L293,79.24Z" transform="translate(-20.12 -27.32)"/><path class="cls-10" d="M138.24,67.91l30,44.78s19.71-19,65.12-19.8,76.91,20,76.91,20l20.72-48s-32.54-37.48-97.7-36-95,39.09-95,39.09" transform="translate(-20.12 -27.32)"/><path class="cls-11" d="M138.24,67.91l30,44.78s19.71-19,65.12-19.8,76.91,20,76.91,20l20.72-48s-32.54-37.48-97.7-36S138.24,67.91,138.24,67.91Z" transform="translate(-20.12 -27.32)"/><path class="cls-15" d="M169.63,101C165.35,92.71,161,84.7,155.22,77.4c-4.11-4.8-8.48-9.36-12.74-14a54,54,0,0,0-4.24,4.52l30,44.78a39.6,39.6,0,0,1,5.3-4q-1.93-3.86-3.91-7.7" transform="translate(-20.12 -27.32)"/><path class="cls-15" d="M248.24,69.37c.81-7.22,1.58-14.46,2-21.72A169.61,169.61,0,0,1,252.43,30a156.68,156.68,0,0,0-16.66-1.08A158.77,158.77,0,0,0,209,30.73l.12.48c.88,3.74,1.63,7.52,2.3,11.31,2.4,13.55,4.42,27.16,7.8,40.52.86,3.39,1.88,6.73,2.93,10.07,3.61-.2,7.41-.28,11.4-.21s7.95.32,11.74.7c1-8.08,2-16.15,2.92-24.23" transform="translate(-20.12 -27.32)"/><path class="cls-16" d="M169.29,77.72C165.47,72.33,161.64,67,158,61.48c-1.59-2.36-3.13-4.77-4.86-7-10,7.37-14.86,13.46-14.86,13.46l30,44.78s6.1-5.89,19.32-11.25c-7-7.08-12.55-15.66-18.27-23.72" transform="translate(-20.12 -27.32)"/><path class="cls-16" d="M313.43,51.25c-1.44,2.08-3,4.12-4.52,6.13-.7,1.2-1.4,2.39-2.12,3.58a324.5,324.5,0,0,1-21,29.8c-1.35,2.07-2.76,4.09-4.22,6.08-.69,1-1.33,2-2,3C297.94,106.29,308.8,114,308.8,114l22.39-47.26s-5.85-7.22-17.76-15.49" transform="translate(-20.12 -27.32)"/><path class="cls-17" d="M159.91,59.79a22.48,22.48,0,0,1,11.14-6.93c1.57-.41,3.35-.62,4.71.26a6.72,6.72,0,0,1,2.1,2.76c.48.92.95,1.85,1.43,2.78a10.33,10.33,0,0,1,1.39,3.9A3.58,3.58,0,0,1,179,66.1a3.44,3.44,0,0,1-3.41-.49,7.89,7.89,0,0,1-2.2-2.84,23.24,23.24,0,0,0-1.77-3.16,4.7,4.7,0,0,0-2.91-2,2.13,2.13,0,0,0-2.21.86,2.91,2.91,0,0,0,.33,2.6c2.43,5,5.11,9.88,7.75,14.78,1.37,2.55,2.74,5.11,4.12,7.66.68,1.28,1.37,2.56,2.06,3.83a22.59,22.59,0,0,0,2.07,3.49c.26.35.53.69.8,1a2.72,2.72,0,0,0,.54.58.91.91,0,0,0,.76.16.92.92,0,0,0,.57-.93,2.79,2.79,0,0,0-.39-1.11l-3.59-6.78a7.1,7.1,0,0,1-.69-1.6,2.51,2.51,0,0,1,.1-1.71,2.64,2.64,0,0,1,1.45-1.21,4.39,4.39,0,0,1,4.12.52,7.75,7.75,0,0,1,2,2.47,39.15,39.15,0,0,1,1.85,3.51,7.21,7.21,0,0,1,1.1,3.2,9.58,9.58,0,0,1-16.89,5.73A19.2,19.2,0,0,1,172,90.28l-4-8.52c-2.58-5.57-5.68-11-8.12-16.59a9.28,9.28,0,0,1-.83-2.7,3.73,3.73,0,0,1,.85-2.68" transform="translate(-20.12 -27.32)"/><polygon class="cls-17" points="159.56 21.75 175.41 65.81 189.17 61.25 187.65 56.49 181.55 58.63 175.38 40.47 182.11 38.25 180.69 33.59 174.19 36.22 169.94 22.45 178.3 18.77 175.96 14.49 159.56 21.75"/><path class="cls-17" d="M200.33,40.51l5.4-1.33,15.64,25.95-3-29.21,5.33-.18L229,85.59l-4.29.15s-11.75-19.28-11.82-19.28,5.64,20,5.64,20l-6.9,1.42Z" transform="translate(-20.12 -27.32)"/><path class="cls-17" d="M226.62,34.9s23.32.32,23.32.32L250,40l-7.85-.19.78,45.44-8.26.29-.53-46.12-7.31.36Z" transform="translate(-20.12 -27.32)"/><path class="cls-17" d="M271,41.48c-1.23-5.12-16.11-5.8-15.69-5.81,0,0-9.77,49.11-9.71,49s8.34,1,8.34,1,2.16-18.5,2.45-18.3S259.63,87,259.63,87s6,1.26,6,1-4.44-21.69-4.37-21.48,7.33-2.14,8.59-8,2.32-11.88,1.1-17m-7.45,14.84c-2.07,5-6.1,5.31-6.1,5.31l4.42-19.77s3.64.44,4.15,3-.41,6.51-2.47,11.46" transform="translate(-20.12 -27.32)"/><path class="cls-17" d="M287.63,44.54,266.09,88l6.42,2.2L277.78,81l4.78,1-1.08,11.21,5.93,1.89,7.08-48.05Zm-3.24,33.89-5.48-1.21,7.83-15.9Z" transform="translate(-20.12 -27.32)"/><path class="cls-17" d="M309.57,53.42c.21-.07,7.28,4.85,7.28,4.85L299,96.08l6.45,2.85-2.57,4.34-13.44-7.35Z" transform="translate(-20.12 -27.32)"/><path class="cls-7" d="M292.76,111.16h-110A33.84,33.84,0,0,0,148.88,145v9.48a33.84,33.84,0,0,0,33.84,33.84h110a33.84,33.84,0,0,0,33.84-33.84V145a33.84,33.84,0,0,0-33.84-33.84m30.07,41A33.84,33.84,0,0,1,289,186H187.33a33.84,33.84,0,0,1-33.84-33.84v-4.76a33.84,33.84,0,0,1,33.84-33.84H289a33.84,33.84,0,0,1,33.84,33.84Z" transform="translate(-20.12 -27.32)"/><path class="cls-18" d="M289,186H187.33a33.84,33.84,0,0,1-33.84-33.84v-4.76a33.84,33.84,0,0,1,33.84-33.84H289a33.84,33.84,0,0,1,33.84,33.84v4.76A33.84,33.84,0,0,1,289,186" transform="translate(-20.12 -27.32)"/><path class="cls-19" d="M194,115c12-.24,23.95-.33,35.92-.8,5-.2,10-.45,15.06-.71H187.33a33.92,33.92,0,0,0-10.86,1.79c5.83,0,11.66-.16,17.5-.28" transform="translate(-20.12 -27.32)"/><path class="cls-19" d="M299.21,166.13c-14.25,5.15-29.94,5.11-44.93,5.35-7.8.13-15.6,0-23.4-.07s-15.36.06-23-.25a129.15,129.15,0,0,1-22.7-2.65,77.27,77.27,0,0,1-14.44-5.12c-4.75-2.1-9.68-5.09-13.11-9a31,31,0,0,1-4.1-6v3.72A33.84,33.84,0,0,0,187.33,186H289a33.84,33.84,0,0,0,33.78-31.82,96.92,96.92,0,0,1-23.56,12" transform="translate(-20.12 -27.32)"/><path class="cls-20" d="M187.39,153.27c-.69.19-1.38.4-2.06.63-.45.23-.9.48-1.34.74l3-.24a11.34,11.34,0,0,1,.35-1.13" transform="translate(-20.12 -27.32)"/><path class="cls-20" d="M156.43,134.12c5.75-6,13.45-9.68,21.2-12.25,6.44-2.14,13.14-3.11,19.84-4a217.32,217.32,0,0,1,25.11-1.6c18.94-.27,37.78,1.32,56.67,2.43,4.57.27,9.15.35,13.7.81s9.69.89,14.13,2.66A31.28,31.28,0,0,1,316.7,128,33.79,33.79,0,0,0,289,113.52H187.33A33.86,33.86,0,0,0,156,134.58l.44-.46" transform="translate(-20.12 -27.32)"/><path class="cls-21" d="M169.53,147.55a4.43,4.43,0,1,1-4.43-4.42,4.43,4.43,0,0,1,4.43,4.42" transform="translate(-20.12 -27.32)"/><path class="cls-21" d="M314.8,147.55a4.43,4.43,0,1,1-4.43-4.42,4.43,4.43,0,0,1,4.43,4.42" transform="translate(-20.12 -27.32)"/><path class="cls-22" d="M161.3,145.41c-.18-.31.92.52,1.06.62.55.4,1.08.83,1.62,1.25.94.73,1.92,1.38,2.89,2.06q.78.56,1.59,1.08a4.54,4.54,0,0,0,.48-.67c-1-.84-2-1.68-3-2.6a28.74,28.74,0,0,0-3.74-3,4.51,4.51,0,0,0-1,1.16l0,.06" transform="translate(-20.12 -27.32)"/><path class="cls-22" d="M313.57,146.18A72.52,72.52,0,0,1,306,148a4.75,4.75,0,0,0,.19.91,59.29,59.29,0,0,0,6.31-.94c.78-.18,1.55-.38,2.33-.57a4.67,4.67,0,0,0-.32-1.51l-.91.27" transform="translate(-20.12 -27.32)"/><path class="cls-23" d="M194.9,139.6a11.83,11.83,0,0,0-1.25-2.08,13.28,13.28,0,0,0-1.58-1.75,18.81,18.81,0,0,0-3.62-2.61,40.23,40.23,0,0,0-3.74-1.83,43.15,43.15,0,0,0-16.05-3.83l-.1,5.07a31.08,31.08,0,0,1,4.59.42v24a32.37,32.37,0,0,1-4.52.15l0,4.12c1.37,0,2.75-.09,4.13-.26l.43-.06v12.41h13l-.25-16.88c.74-.43,1.46-.87,2.17-1.32s1.09-.71,1.73-1.18a18.1,18.1,0,0,0,1.7-1.43,16.9,16.9,0,0,0,2.84-3.43,11.8,11.8,0,0,0,1-2.11,11,11,0,0,0,.36-1.19l.12-.65c0-.22.05-.44.07-.66a9.94,9.94,0,0,0-1-4.9m-3.5,5,0,.31a6.4,6.4,0,0,1-.18.69,11.53,11.53,0,0,1-.58,1.45,12.36,12.36,0,0,1-1.89,2.77,10.31,10.31,0,0,1-1.24,1.15c-.4.32-1,.69-1.5,1l-.16.11-.22-15a14.94,14.94,0,0,1,3.32,2.15,8.58,8.58,0,0,1,1.07,1.11,7.16,7.16,0,0,1,.8,1.25,5.47,5.47,0,0,1,.65,2.66Z" transform="translate(-20.12 -27.32)"/><polygon class="cls-23" points="207.77 106.41 207.77 100.18 178.97 100.18 178.97 106.41 183.29 106.41 183.29 127.76 178.97 127.76 178.97 132.29 183.29 132.29 183.29 141.5 178.97 141.5 178.97 146.03 183.29 146.03 194.45 146.03 207.77 146.03 207.77 141.5 194.45 141.5 194.45 132.29 205.75 132.29 205.75 127.76 194.45 127.76 194.45 106.41 207.77 106.41"/><path class="cls-23" d="M266.47,173.35s-7.26-9.07-9.42-12.91c-1.24-2.2-2.5-4.63-3.35-6.3l.23-.17a18.1,18.1,0,0,0,1.7-1.43,16.9,16.9,0,0,0,2.84-3.43,11.8,11.8,0,0,0,1-2.11,11,11,0,0,0,.36-1.19l.12-.65c0-.22,0-.44.07-.66a9.94,9.94,0,0,0-1-4.9,11.83,11.83,0,0,0-1.25-2.08,13.28,13.28,0,0,0-1.58-1.75,18.81,18.81,0,0,0-3.62-2.61,40.23,40.23,0,0,0-3.74-1.83,43.2,43.2,0,0,0-16.05-3.83l-.1,5.07a31.08,31.08,0,0,1,4.59.42v24a32.37,32.37,0,0,1-4.52.15l0,4.12c1.37,0,2.75-.09,4.13-.26l.43-.06v12.41h13L250,157c2.4,4.73,8.55,16.31,8.55,16.31Zm-13.4-34.12a8.58,8.58,0,0,1,1.07,1.11,7.16,7.16,0,0,1,.8,1.25,5.47,5.47,0,0,1,.65,2.66l0,.32,0,.31a6.4,6.4,0,0,1-.18.69,11.53,11.53,0,0,1-.58,1.45,12.36,12.36,0,0,1-1.89,2.77,10.31,10.31,0,0,1-1.24,1.15c-.4.32-1,.69-1.5,1l-.16.11-.22-15a14.94,14.94,0,0,1,3.32,2.15" transform="translate(-20.12 -27.32)"/><path class="cls-23" d="M291.79,150.42c5.58-6,16-22.92,16-22.92h-7.05s-7.43,13.56-16.1,21.16l-.29-21.16H272.4v30.29l-3.63,2.65v7.89s1.44-1,3.63-2.54v7.56H285l-.2-14.56,11.78,14.56h7.67s-12.47-15.16-15.89-19.66a46.92,46.92,0,0,0,3.48-3.27" transform="translate(-20.12 -27.32)"/><path class="cls-24" d="M198.68,136.09a12,12,0,0,0-1.25-2.07,12.76,12.76,0,0,0-1.58-1.76,19.85,19.85,0,0,0-3.62-2.6,36.76,36.76,0,0,0-3.74-1.83A43,43,0,0,0,172.44,124l-.1,5.07a29.68,29.68,0,0,1,4.58.43v24a32.17,32.17,0,0,1-4.51.16l0,4.11c1.37,0,2.74-.09,4.12-.26l.43-.06v12.41h13L189.65,153c.73-.42,1.46-.86,2.17-1.32s1.09-.71,1.73-1.17a19.58,19.58,0,0,0,1.7-1.44,16.9,16.9,0,0,0,2.84-3.43,11.8,11.8,0,0,0,1-2.11c.14-.38.25-.78.36-1.18l.12-.66c0-.22.05-.43.07-.65a10.09,10.09,0,0,0-1-4.91m-3.5,5-.05.31c0,.23-.1.46-.17.69a11,11,0,0,1-.58,1.45,12.14,12.14,0,0,1-1.9,2.78,9.44,9.44,0,0,1-1.23,1.14c-.4.32-1,.69-1.5,1l-.16.11-.22-15a15.81,15.81,0,0,1,3.32,2.15,7.87,7.87,0,0,1,1.06,1.11,6.68,6.68,0,0,1,.81,1.25,5.51,5.51,0,0,1,.64,2.66Z" transform="translate(-20.12 -27.32)"/><polygon class="cls-24" points="211.55 102.91 211.55 96.68 182.74 96.68 182.74 102.91 187.07 102.91 187.07 124.25 182.74 124.25 182.74 128.78 187.07 128.78 187.07 137.99 182.74 137.99 182.74 142.52 187.07 142.52 198.23 142.52 211.55 142.52 211.55 137.99 198.23 137.99 198.23 128.78 209.53 128.78 209.53 124.25 198.23 124.25 198.23 102.91 211.55 102.91"/><path class="cls-24" d="M270.24,169.84s-7.25-9.07-9.41-12.9c-1.24-2.21-2.51-4.64-3.35-6.31l.23-.16a19.58,19.58,0,0,0,1.7-1.44,16.9,16.9,0,0,0,2.84-3.43,11.8,11.8,0,0,0,1-2.11c.14-.38.25-.78.36-1.18l.12-.66c0-.21.05-.43.07-.65a10.09,10.09,0,0,0-1-4.91,12,12,0,0,0-1.25-2.07,12.76,12.76,0,0,0-1.58-1.76,19.85,19.85,0,0,0-3.62-2.6,36.76,36.76,0,0,0-3.74-1.83A43,43,0,0,0,236.6,124l-.1,5.07a29.68,29.68,0,0,1,4.58.43v24a32.17,32.17,0,0,1-4.51.16l0,4.11c1.37,0,2.75-.09,4.12-.26l.43-.06v12.41h13l-.24-16.3c2.39,4.72,8.54,16.3,8.54,16.3Zm-13.39-34.12a7.87,7.87,0,0,1,1.06,1.11,6.68,6.68,0,0,1,.81,1.25,5.51,5.51,0,0,1,.64,2.66l0,.32,0,.31c-.05.23-.1.46-.17.69a11,11,0,0,1-.58,1.45,12.14,12.14,0,0,1-1.9,2.78,9.44,9.44,0,0,1-1.23,1.14c-.4.32-1,.69-1.5,1l-.16.11-.22-15a15.81,15.81,0,0,1,3.32,2.15" transform="translate(-20.12 -27.32)"/><path class="cls-24" d="M295.56,146.92c5.59-6,16-22.93,16-22.93h-7s-7.44,13.56-16.1,21.17L288.1,124H276.17v30.29l-3.62,2.66v7.88s1.44-1,3.62-2.53v7.55h12.56l-.2-14.56,11.77,14.56H308s-12.47-15.16-15.9-19.66a43.3,43.3,0,0,0,3.48-3.26" transform="translate(-20.12 -27.32)"/><path class="cls-25" d="M172.38,156.73v1c1.37,0,2.75-.09,4.12-.26l.43-.06v12.41h13l-.22-14.94c-5.77.65-11.52,1.45-17.3,1.83" transform="translate(-20.12 -27.32)"/><path class="cls-25" d="M218.35,156.1h11.3v-1.59l-3.62-.13c-7.69-.29-15.45-.69-23.16-.48v2.2h4.32v9.21h-4.32v4.53h28.8v-4.53H218.35Z" transform="translate(-20.12 -27.32)"/><path class="cls-25" d="M236.56,154.78l0,3c1.37,0,2.75-.09,4.12-.26l.43-.06v12.41h13l-.22-14.6c-5.76-.07-11.52-.25-17.28-.46" transform="translate(-20.12 -27.32)"/><path class="cls-25" d="M259.9,155.25c-1,0-2,0-3,0l-2.18,0c2.75,5.34,7.66,14.59,7.66,14.59h7.88s-7.25-9.07-9.41-12.9l-.93-1.69" transform="translate(-20.12 -27.32)"/><path class="cls-25" d="M287.87,152.61q-5.83,1-11.7,1.63v0l-3.62,2.66v7.88s1.44-1,3.62-2.53v7.55h12.56l-.2-14.56,11.78,14.56H308s-10.34-12.57-14.78-18.22q-2.65.54-5.33,1" transform="translate(-20.12 -27.32)"/><path class="cls-26" d="M185,162.05c-2.7.57-5.38,1.23-8.05,1.95v5.84h13l-.13-8.73c-1.61.28-3.21.6-4.8.94" transform="translate(-20.12 -27.32)"/><path class="cls-26" d="M218.35,160.31c-3.71-.32-7.43-.54-11.16-.58v5.58h-4.32v4.53h28.8v-4.53H218.35Z" transform="translate(-20.12 -27.32)"/><path class="cls-26" d="M241.08,162.91v6.93h13L254,164c-4.31-.21-8.6-.6-12.89-1.08" transform="translate(-20.12 -27.32)"/><path class="cls-26" d="M263,164.11c-1.23,0-2.45,0-3.68,0,1.67,3.18,3,5.7,3,5.7h7.88s-2.18-2.73-4.51-5.83c-.9,0-1.8.08-2.7.1" transform="translate(-20.12 -27.32)"/><path class="cls-26" d="M276.17,163.11v6.73h12.56l-.12-8.89q-6.17,1.37-12.44,2.16" transform="translate(-20.12 -27.32)"/><path class="cls-26" d="M272.55,163.51v1.31l2.22-1.55q-1.11.14-2.22.24" transform="translate(-20.12 -27.32)"/><path class="cls-26" d="M293.42,159.79l-1,.26,7.92,9.79H308s-4.91-6-9.41-11.52c-1.71.53-3.42,1-5.15,1.47" transform="translate(-20.12 -27.32)"/><path class="cls-11" d="M138.24,67.91l30,44.78s19.71-19,65.12-19.8,76.91,20,76.91,20l20.72-48s-32.54-37.48-97.7-36S138.24,67.91,138.24,67.91Z" transform="translate(-20.12 -27.32)"/></g></g></g></g></svg>