<svg xmlns="http://www.w3.org/2000/svg" viewBox="0 0 573.21 628.8"><defs><style>.cls-1{fill:#fbb040;stroke:#fff;stroke-miterlimit:10;}</style></defs><g id="Layer_2" data-name="Layer 2"><g id="Layer_1-2" data-name="Layer 1"><path class="cls-1" d="M523.72,464.78a82.31,82.31,0,0,1-14-2c-4.41-1-5.77-4.15-3.52-8,9.94-16.16,25.09-30.28,36.52-45.55,7.69-10.27,21.68-26.61,22.22-40.09a.59.59,0,0,1,.56-.64c1.06-4.91,2.9-9.79,3.07-14.73.87-25.52,2.37-50.45-6.59-74.85-7.71-21-20.57-39.61-35.29-56.28-7.33-8.3-14.32-16.91-21.18-25.6-3.84-4.86-2.13-8.11,4.25-8.56,3.76-.27,7.58.15,11.31-.29,12.77-1.5,24.48-5.42,34.07-14.62,8.49-8.13,13.35-18.3,15.38-29.4,1.44-7.85,2.22-16.1-2.88-23.92-11.89-18.21-28.6-27.36-50-29-1.84-.14-4.46.89-5.47-1.62-.84-2.1,1.27-3.33,2.23-4.84,10.85-16.88,18.39-34.75,13.41-55.23-2.31-9.52-6.42-18.66-16.07-23.51C505.65,3,498.93,2.41,492.11,2.33c-12.92-.15-25.43,1.09-36,9.63-9.14,7.38-13.26,17.52-15.87,28.55-1.52,6.42-2.71,6.76-9.13,4-10.31-4.45-20.66-8.8-31.3-12.45-15.65-5.36-31.41-10.21-47.55-14-12-2.82-24-5.72-36.29-6.11-13.94-.43-27.94-.31-41.88.26-7.85.32-15.91.86-23.49,2.54-11.65,2.57-23.09,6.31-34.49,10.09-18.11,6-36,12.44-53.29,20.43-2.77,1.28-6.23,2.2-6.85-3.17a37.6,37.6,0,0,0-1.82-7C150.91,25,147.4,15,137.11,9.46a87.38,87.38,0,0,0-20.26-7.52c-15.4-3.87-29,.23-40.35,10.19-8.11,7.11-9.36,18.09-10.25,28.25-.51,5.85-2,11.4-3,17.1-.56,3.41-2.33,7.41-6.41,8.23-3.12.63-6,1.74-9,2.61C32.12,72.87,17.84,79.53,8,93.51,3.37,100.07-1,106.64,1,115c1.19,4.87,1.87,9.84,3.7,14.62,8.69,22.72,24.54,34.41,48,36.09,3.38.25,6.84-.17,10.17.34,6,.93,7.25,4.4,3.75,9.39-2.13,3-4.33,6-6.65,8.89-23.11,28.9-50.41,55.92-54.9,94.5-3.1,26.6-1.52,52.84,9.48,77.53,10,22.38,25.63,42.15,41,60.67,4.47,5.4,9,10.73,13.27,16.31,3.13,4.12,2.28,5.18-2.29,6.89-5.87,2.2-11.85,1.8-17.84,2-23.7.69-40.85,22.64-45.67,43.84C1.59,492.15.52,499.25,3.65,505c10.78,19.67,26.64,32,50.13,32.43,2.5,0,5.88-1.22,7.36,1.17,1.8,2.91-1.52,5.21-2.94,7.27-8,11.53-11.89,24.71-14.37,38.07-2,10.52,2.62,20.54,7.83,29.63,4.39,7.64,11.09,11.91,20.43,12.45,11.33.65,22.91,2,33.65-1.59,17.27-5.84,24.81-20.11,28-37.11.91-5,2.23-5.61,7-3.6C151,588,161.37,592.4,171.86,596.3c61.93,23,126.94,28.32,190,7,14.69-5,29.17-10.43,43.33-16.65,11.2-4.91,11.39-4.75,14.3,6.9,2.28,9.12,5.68,18.29,13.8,24,21.44,15.12,57.62,16.44,69.84-10.67,5-11,3.1-23.1,6.93-34,3-8.63,10.66-10.28,18.55-12.69,14.59-4.47,27.11-11.56,36.54-23.74C587.56,507.56,556,466.25,523.72,464.78Zm24.1-188.57c7.57,17.68,11.65,37.09,10.57,56.36-1,18.2-5.16,35-13.55,51.25-4.24,8.2-9.86,15-14.88,22.57a233.24,233.24,0,0,1-13.65,19.1c-4,4.87-9.54,12.63-15.46,15.21a2.43,2.43,0,0,1-2.5-.22c-1.11-1-.64-2.8.24-4,4.27-5.68,8.77-11.26,13.07-17,8.3-11,17.28-22.18,24.28-34.1,6.37-10.83,10.49-23,13.09-35.13,2.5-11.6,1.83-23.12,2.05-34.68.2-10.58-2.62-21.16-6.61-30.88-2.7-6.58-6.68-12.43-9.66-18.81-2.75-5.86-7.65-11.13-11.51-16.36l-11.4-15.41-14-19c-.71-1-1.46-2.17-1-3.27a2.4,2.4,0,0,1,2.89-1.09,6.93,6.93,0,0,1,2.73,1.93C521.06,231.18,537.52,252.17,547.82,276.21Zm-34.37,25.41c-2.43-17.07-8.17-33.08-14.51-49.06a136.37,136.37,0,0,0-8.75-19,2.05,2.05,0,0,1-.37-1.05c.22-2.6-2.81-6,.56-7.62s4.21,2.69,5.21,4.54c9.57,17.74,19.84,37.61,22.8,57.79.91,6.24,2.59,12.44,2.68,18.76.3,19.26,2.28,39.42-2,58.3-4,17.71-11,34.85-19.2,50.81-1.64,3.19-3,6.61-5.49,9.39-1.15,1.27-2.16,2.19-3.73,1.67-2-.68-1.27-2.61-1.05-3.88.92-5.44,4.49-9.76,6.58-14.71,4-9.52,7.79-19.14,11.66-28.72,2.92-12.56,5.88-24.42,6.87-37.35A184.18,184.18,0,0,0,513.45,301.62Zm-363-238.34A291.31,291.31,0,0,1,202.3,38.66c14.52-5.32,29.41-9.19,44.34-12.82,14.24-3.46,29-4.15,43.59-4.78,8.29-.36,16.61-.21,24.92-.14,11.7.1,22.83,3.39,34.12,6,9.25,2.16,18.35,4.8,27.54,7.14C394.67,38.63,411.52,45.6,428,53.72a120,120,0,0,1,17.26,10c1.45,1.05,2.58,2.26,2.1,4-.31,1.13-1.74,1.28-2.95,1.09A19.36,19.36,0,0,1,439,67.29C424.46,60.34,410.57,52,395.1,47c-9-2.92-17.85-5.93-27-8.06C355.72,36.06,343.47,32.3,331,30.6,317,28.71,303,26.26,288.77,28.37c-10.6,1.57-21.37,2.09-31.92,3.93-12.24,2.14-24.34,4.93-36.37,8.27a294.87,294.87,0,0,0-44,16.6c-7.2,3.3-13.91,7.63-21.51,10.08a10.77,10.77,0,0,1-2.56,1c-1.59.08-3.75,1-4.6-.84C146.74,65.14,148.76,64.31,150.45,63.28ZM85.23,38.06c1.42-8.65,5.17-15.77,13.37-19.18,12.8-5.33,33.69-3.47,42.38,8.69,7.56,10.56,3.53,24.06-6.34,31.45-7.69,5.75-16.28,8-25.8,4.85a10.41,10.41,0,0,1-7.07-11.69c1.09-6,4.33-10.5,9-14.28a6.69,6.69,0,0,1,4.67-1.31c1.67,0,3.5-.14,4.26,1.93s-1.08,2.78-2,3.68c-2.5,2.44-5.73,4-7.4,7.44-2,4.18-1,6.91,3.39,7.76,12.57,2.4,24.66-7.72,24.51-20.45,0-3.29-2.24-5.08-4.47-6.74-7.79-5.78-16.63-7.94-26.23-7.07-6.87.62-14.21,8.3-14.48,15.19-.23,5.84-.43,11.69-.31,17.53.24,11.63,7.42,19,16.91,23.49a75.54,75.54,0,0,0,42.14,6.8c9.68-1.21,19.08-4.81,28.58-7.46,12.14-3.39,24.31-6.7,36.36-10.4,19.87-6.1,41.06-8.74,61.76-9.83,14.06-.75,28.48-1.52,42.51.06,13.23,1.49,26.47,3,39.41,5.78q19.83,4.29,39.32,10.37A421.55,421.55,0,0,0,441.79,85.9a63.24,63.24,0,0,0,25.82-.6c6.16-1.34,12.4-2,18.07-5.19,11.08-6.3,18.48-14.77,18-28.35-.13-3.39-.24-6.78-.35-10.18-.47-14-13.15-20.65-24.77-18-6.24,1.41-12.47,3.76-17.59,8.13-1.65,1.4-3,2.64-3,5.06.21,13.8,12.36,24.46,25.53,20.75,4.32-1.22,4.41-3.78,2.85-6.78a15.29,15.29,0,0,0-7.41-7.28c-1.56-.68-3.49-1.89-2.75-3.68a5,5,0,0,1,4.44-2.9c4.19-.12,11.32,6.61,13.09,13,1.36,4.92,1.13,9.87-3.76,13-4,2.59-8.66,4.09-13.35,2.88C469.24,63.85,462.1,61.48,457,55c-8.56-10.9-10.08-28.44,8-34.54,9.37-3.16,18.32-5.76,28.3-2.38,8.27,2.8,13.77,8.19,16.34,16,4.81,14.61,3.31,28.51-6.56,41-11.66,14.75-29.59,19-48.06,18.35C439.71,93,424,89.12,411.21,85.27c-9.43-2.84-19-5.11-28.42-8-11.38-3.55-23.09-5.7-34.68-8.35a125.92,125.92,0,0,0-22.94-2.67c-20.18-.8-40.39-1-60.57,0-10.31.48-20.37,3.06-30.41,5.25-10.53,2.31-21,4.78-31.33,8.13C194,82.42,185,84.71,176.17,87.44c-17.23,5.29-34.45,7.39-52.59,4.25C107,88.82,95.37,80.39,87.63,66,82.86,57.09,83.67,47.63,85.23,38.06ZM419.45,339.47c0,17.25-.69,34.43-1.14,51.64q-.22,8.5-.34,17c-.29,23.52-.79,47-1.18,70.56a46.24,46.24,0,0,1-1.55,11.12,6.75,6.75,0,0,1-3.36,4.35,10,10,0,0,1-4.43.65c-15.55-.08-31.11-.15-46.66.21-39.41.9-78.83,1.31-118.24.43-15.78-.36-31.56-.5-47.34-.68-14.83-.18-30.07.69-44.78-1.57-3.36-.51-6.86-1.29-9.46-3.49-3-2.56-2.78-5.35-2.57-8.87.66-11-.39-22.33-.67-33.32-.3-11.73-.63-23.46-.92-35.19-.57-23.25-.36-46.45-.39-69.7q0-18.15-.06-36.3v-7.06q0-35.31.07-70.62c0-22.77-.89-45.75.51-68.46.33-5.48.83-13.48,4.56-17.85,2.51-3,8.26-8,12.4-8.1,21.07-.53,42.19-1.46,63.26-1.46q26.44-.57,52.89-.79c46.18-.38,92.4-.41,138.51,2.24,7.73.45,10.73,4,10.79,10.07.46,44.93.34,89.85-.12,134.78C419,299.2,419.49,319.33,419.45,339.47ZM163.71,520.4c8.2,1.75,16.32,3.82,24.51,5.62,9.45,2.09,18.86,4.5,28.42,5.92a295.42,295.42,0,0,0,31.43,3c20.36.79,40.78,1.28,61.1-.12A312.1,312.1,0,0,0,350.79,529c11.86-2.45,23.54-5.66,35.51-7.68,12.86-2.18,25.52-5.51,38.29-8.23,2.86-.61,6.26-1.71,6.79,3.08.18,1.66-.16,2.81-2.2,3.22-10.77,2.18-21.6,4.15-32.24,6.86-11.54,2.94-23.3,4.88-34.79,8.14a172.45,172.45,0,0,1-25.83,5c-19.65,2.42-39.41,3.52-65.24,3a367.86,367.86,0,0,1-53.18-3.09,284.11,284.11,0,0,1-38.27-7.92c-8.23-2.31-16.74-3.66-25.14-5.37-8.22-1.68-16.47-3.26-24.69-4.92-1.32-.27-2.62-.83-2.92-2.33-.37-1.89,1.65-1.72,2.45-2.61,1.8-2,4.28-1.59,6.37-1.22Q149.76,517.42,163.71,520.4ZM416.12,110c-8.29-1.42-16.4-3.54-24.58-5.34q-13.65-3-27.3-6A146.25,146.25,0,0,0,345.31,96c-27.21-2.21-54.41-4.3-81.79-1.1-10,1.17-20.22,1.89-30.23,3.27C221.53,99.8,210,103,198.34,105.51c-9.28,2-18.56,4-27.85,6-7.49,1.58-15,3.17-22.51,4.56-2,.37-4.85,1.23-5.26-2.28-.39-3.29,2.2-4,4.59-4.49,16.68-3.74,33.44-7.09,50.12-10.87a493,493,0,0,1,61.39-10.28c29.13-2.81,58-1.32,86.87,1.15a264.34,264.34,0,0,1,54.4,10.27c8.34,2.54,17.19,3.44,25.79,5.15,7.85,1.56,15.71,3.12,23.51,4.9,5,1.14,5.42,5.81.1,6.76a11.2,11.2,0,0,1-2.95.11c-3-.26-6-1.45-8.87-2.08C430.51,112.82,423.35,111.23,416.12,110Zm-370,276.7c-8.45-11.33-16.3-23.24-22.2-36.12a91.79,91.79,0,0,1-7.37-26.34c-1.13-8.61-.42-17.63-.53-26.31a111.76,111.76,0,0,1,22.62-68.14c9.74-12.5,17.53-26.55,29.47-37.31,2.47-2.23,5.27-6.1,8.28-3.18,2.23,2.17-1.54,5.2-3.37,7.3-11.56,13.29-21.57,27.74-31.66,42.1-13.45,19.16-18.6,41.45-19.74,64.61-.67,13.75,3,27.88,8.07,40.66,3.69,9.27,7.89,19.3,14.22,27.07,5.13,6.28,9.94,12.89,14.81,19.44,2,2.74,4.09,5.47,6.18,8.16,1.61,2.08,14.85,17.44,11.49,20.19-1.71,1.4-3.67-.83-4.89-1.84C61.18,408.43,54,397.31,46.11,386.7Zm18.56-37,10,28c2.83,5.76,5.72,11.49,8.47,17.29a20.49,20.49,0,0,1,1.45,4.82c.34,1.71.29,3.83-1.46,4.45s-2.72-1-3.8-2.41c-3.43-4.39-5.39-9.52-7.76-14.45-10-21.76-18.19-43.26-19.07-67.52-.29-7.83.86-15.66.53-23.42-.36-8.63.05-17.36,0-26,0-8.49,3.84-16,6.48-23.66a236.22,236.22,0,0,1,15.36-36.05c1.39-2.56,3.17-4.91,4.71-7.39.75-1.21,1.86-1.17,3-.91,1.43.33,1.39,1.66,1.44,2.73.16,3.92-1.93,7.16-3.52,10.47-6.44,13.37-12.59,26.87-16.64,41.16C59.58,272,59,287.53,58.42,303.13,57.8,319.11,60.28,334.51,64.67,349.73ZM49.86,522.59a36.88,36.88,0,0,1-21.13-13.4,12.07,12.07,0,0,1-2.25-5.68c-1.8-12.8-7.91-29,4.85-38.26,6.61-4.81,14.84-5.86,22.49-8a16.8,16.8,0,0,1,21.17,14c.91,7.24,2,14.31.32,21.78-1.8,8.24-5.62,12.65-13.92,12.81-12.79.26-20.27-5.76-22.3-18.32-.76-4.72,2.84-7.58,6-10a9.66,9.66,0,0,1,9.51-1.56,2.82,2.82,0,0,1,2,3c-.08,1.59-1.27,1.69-2.37,1.83-5.36.67-7.21,3.76-6.51,8.93A10.53,10.53,0,0,0,57.33,499c5.09.39,8.84-.8,11.09-6.28,3.38-8.28,1.15-15.73-1.82-23.29-1.51-3.86-4.4-5.1-8.46-5-7.46.13-14.36,2.29-21.06,5.2-3.24,1.41-4.85,3.9-5.54,7.76-1.36,7.6-.3,14.88,1.67,22C37,512.92,53.43,519.91,69.15,514c14.56-5.45,22.13-15.91,27.85-28.92,7.6-17.26,13.1-35.14,11.66-54.2-1.09-14.48-3.26-28.87-8-42.78a258.73,258.73,0,0,1-7.28-26.24c-1.51-6.59-3.89-13-5.65-19.64-.47-1.75-.89-3.52-1.24-5.31a201.45,201.45,0,0,1-3.58-28.42c-1-18.57.8-37.55,7-55.15,3.16-8.9,5-18.24,7.91-27.25,3.58-11.18,5.76-22.67,8-34.14,1.85-9.65,1.51-19.52,1.17-29.32-.78-23-10.24-42.64-23.37-60.84-3.69-5.11-9.93-6.59-15.5-8.07C63,92.4,58.28,89.83,52.85,90.42a22.57,22.57,0,0,0-13,6.2c-5.69,5.48-8.6,13.31-9.75,21.13-.73,5-.73,10.4,2,14.66,3.41,5.39,10.1,7.5,16.23,9.21,4.6,1.28,9.76,2.51,13.95.22,3-1.62,4.82-4.76,5.66-8a37.05,37.05,0,0,0,.7-10c-.1-4.92-.57-10.58-4.56-13.46-3.69-2.67-9-1.69-12.86.7a11.41,11.41,0,0,0-5,5.59c-.85,2.4-.25,5.44,1.87,6.86s5.22,1.22,6.4,3.38A3.7,3.7,0,0,1,53,131.47a6.53,6.53,0,0,1-5.13.58c-5-1.26-8.56-6.23-9-11.37s1.88-10.25,5.4-14c5.09-5.46,13.41-8.38,20.3-5.51,5,2.06,8.47,6.76,10.1,11.87s1.57,10.61,1,15.93A37,37,0,0,1,72.55,141,17.71,17.71,0,0,1,64,149.75c-6.22,2.67-13.35.52-19.76-1.64-6.82-2.29-14.15-5-18.1-11s-3.5-14-2.67-21.24c.87-7.56,2.19-16,7.83-21.58C36.1,89.52,43.9,84.08,51,84.29c15.43.45,31.48,3.55,41.36,16.71,7.51,10,12.33,21.74,16.63,33.58,7,19.2,5.34,39.13,3.87,58.68-1.08,14.32-5.53,28.41-10,42.23-3.48,10.71-6.66,21.5-10,32.26-2.88,15.38-2.12,30.92-2.06,46.43.07,18.14,6.7,35.8,11.41,53.19,3.12,11.51,7.16,23.15,9.32,34.86,1.84,10,3.61,19.93,4.17,30.07,1.24,22.14-5.68,42.28-15,61.86C92,512.53,70.9,527.27,49.86,522.59ZM421.23,567.3c-11,7.11-22.81,12.56-34.79,17.74a289.41,289.41,0,0,1-44.81,15.12,268.67,268.67,0,0,1-29.74,5.37,225.08,225.08,0,0,1-32.06,2.28c-11.13,1.87-22.37,1.1-33.28-.64-11.68-1.86-23.25-4.79-34.77-7.79-11.13-2.89-22.18-6-33.07-9.65-17.52-5.94-33.82-14.5-50.1-23.1-1.69-.89-3.61-2.32-2.47-4.76,1.33-2.84,3.58-2,5.74-1.06,12.83,5.8,24.9,13.13,38.05,18.32a234.42,234.42,0,0,0,33.35,10.56c11.21,2.58,22.27,5.87,33.49,8.41a119.43,119.43,0,0,0,18.35,2.61c18.13,1.22,36.22-.1,54.15-2.48a324.19,324.19,0,0,0,46.45-9.84c22-6.29,42.37-16.24,62.64-26.52,2.32-1.17,4.65-2.72,6.08.5C425.58,564.94,423,566.16,421.23,567.3Zm52.46,43.77c-14.2,7.84-40.28-1.9-44-14.68-2.74-9.46.66-16.89,6.3-23.49,6.69-7.85,20.52-11,30.32-6,4.84,2.47,6.79,6.14,5.53,11.46a19.18,19.18,0,0,1-12.63,14.34c-2.64,1-4.67.35-5.6-1.8s.92-3,2.87-3.94c5.21-2.43,9.36-9.24,7.93-12.32-1.57-3.38-8.79-4.1-14.5-2-7.12,2.58-11.1,7.53-13.4,14.58a10.13,10.13,0,0,0,2,10c7.39,8.88,24.83,13.08,35.12,6,7.53-5.23,7.41-13.51,8.15-21.22,1.92-19.83-11.25-31.2-27.72-35.52-17.56-4.62-34.78-2.91-52.16,1.83-15.91,4.33-31.55,9.66-47.56,13.54-25.12,6.1-50.33,12.2-72.49,9.58-19.73.06-35.42.6-50.85-2.49-11.7-2.35-23.33-5.06-34.89-8-12.61-3.2-25.39-6.07-37.6-10.46-17.55-6.32-35.46-7.89-53.69-6.12-14,1.36-25.43,7.8-32.66,20.55a13.25,13.25,0,0,0-1.93,6.33c-.23,7.53-1.52,15.37,1,22.45,4,11.23,16.43,16.07,28.58,11,2.5-1.05,5.16-1.85,7.59-3.45,10.11-6.65,10.87-17.36,1.33-25a21.87,21.87,0,0,0-17.29-4.77c-3.81.52-5.28,3.55-4,7.14,1.38,4,4.5,6.21,7.78,8.32,1.32.85,2.65,1.64,2.31,3.44-.44,2.31-2.59,1.82-4.09,2.12a6,6,0,0,1-4.8-1.19A24.18,24.18,0,0,1,80,578.66c-2.1-7.22,2.63-13.39,10.25-14,12.09-1,23,1.5,28.88,13.16s6.41,21.65-6.69,29.07a58.81,58.81,0,0,1-10.13,4.41c-8.56,2.87-16.89,3.23-25.45-1-10.69-5.3-13.28-14.78-15-25.18-3.68-21.59,12.76-39.19,28.64-44.82,6.06-2.15,12.7-2.84,19.36-3.19,20.32-1.07,39.68,2.45,59,8.73,12.29,4,25,7.19,37.59,10.3,29.53,7.25,59.37,9.31,89.52,8.17,13.07-.49,26-2.88,38.82-5.75,8.18-1.82,16.4-3.59,24.56-5.48a216.71,216.71,0,0,0,25.62-7.52,139.52,139.52,0,0,1,65.3-7.73c19,2.29,32,13.62,38.93,31.35C494.57,583.23,486.46,604,473.69,611.07Zm72.73-82.74a29.43,29.43,0,0,1-20.63,16.43c-5.41,1.16-12.35-.66-18.59-1.47-21.9-2.84-29.79-19.62-38-36.59-10.09-20.86-11.47-46.16-8.22-68.78a310,310,0,0,1,6.52-32.67c2.74-10.7,7.41-21,9.94-31.71a206.11,206.11,0,0,0,5.89-51.41c-.31-16.52-4.15-33-8.34-49-3.31-12.69-7.17-25.22-10.75-37.84-4.86-17.1-8.49-36.17-6-54,3.05-21.49,11.05-42.81,23.81-60.42,4.68-6.47,12.32-9.19,19.67-11.64A52.22,52.22,0,0,1,516,106.68c18.12-.84,30.91,10.14,32.74,28.55.45,4.49,1.5,8.94,1.67,13.43.29,8-3.54,13.85-10.7,17.25-7.91,3.74-16,7-25,6.87-8.37-.13-14.54-6-16.17-14.16a60.86,60.86,0,0,1-.11-22.87c2-11.2,13.15-14.48,20.74-12.42,8.52,2.32,13.12,8.61,15.43,16.72,1.89,6.67-6.26,15.42-13.1,14.55a4.32,4.32,0,0,1-3.82-3.45c-.36-1.49,1.1-2.82,2.85-3.57,6.92-3,7.75-8.94,2-14-7.77-6.91-14.09-4.49-17.58,5.48-2.84,8.12-.58,14.89,2.43,22,1.22,2.89,3.63,3.83,6,4.41,7.62,1.85,25.24-6.58,29.15-13.34,1-1.8,1.64-3.66,1.1-5.32-2.15-6.61-1.39-13.75-4.09-20.29-4-9.66-20.35-15.26-31.32-12.18-20,5.59-28.71,20.26-34.87,38.26-4.87,14.25-9.14,28.53-8.44,43.67a179,179,0,0,0,6.21,37.42c2.3,10,4.51,20.54,8,30.2,3.62,10,6.69,19.84,8.25,30.46,1.65,11.23,1.92,22.59,2.68,33.87a127.29,127.29,0,0,1-2.25,33.85c-1.41,6.92-4.08,13.06-6,19.79-2,7-3.65,14.11-5.69,21.1-7.46,25.47-12.86,50.78-7.72,77.39a123.85,123.85,0,0,0,17,42,29.36,29.36,0,0,0,16,12.17c7.51,2.5,15.15,5.14,23.5,3s16.13-10.55,17-19.15c.49-4.85,1.82-9.55,2-14.51.15-5.23-2.14-8.69-6.15-11.17-6.09-3.76-13-5.71-19.89-7.09-7.12-1.41-10.11,2.81-12,11.59-1.08,5-.59,10.55-.09,15.79.41,4.33,2.83,7.77,7.66,8.34,5.23.61,9.67-.85,12.28-5.82,3.77-7.2,2.72-9.74-5-12-1.26-.37-2.13-.69-2-2.11a2.82,2.82,0,0,1,1.63-2.61c7.1-3.92,13.14.89,14.24,7.88a18.76,18.76,0,0,1-7.8,18.77c-5.44,4-17.43,3.92-22.62.4a12.33,12.33,0,0,1-4.9-8.43c-1.38-9.24-2.51-18.55,1-27.8a17.84,17.84,0,0,1,21.42-10.69c7.12,1.89,14.27,4.14,20.46,8.52,5.29,3.75,8.46,8.5,8.68,15.21C551.19,511.55,550.18,520.22,546.42,528.33Z"/></g></g></svg>