<svg width="482" height="80" viewBox="0 0 482 80" fill="none" xmlns="http://www.w3.org/2000/svg">
<g clip-path="url(#clip0_19_97)">
<path d="M31.5327 0C32.7118 0.258506 33.8757 0.593043 35.0699 0.775518C35.6242 0.806275 36.161 0.982059 36.6271 1.28549C37.0932 1.58891 37.4725 2.00947 37.7275 2.50558C37.9825 3.00168 38.1043 3.55615 38.081 4.11415C38.0576 4.67214 37.8899 5.21435 37.5943 5.68713C37.1761 6.58262 36.5423 7.35896 35.7504 7.94578C34.9585 8.5326 34.0336 8.91135 33.0594 9.04771C28.192 9.77761 23.778 11.8913 19.2884 13.7464C18.9578 13.9071 18.6759 14.1538 18.4721 14.4611C16.2338 17.4235 14.6842 20.853 13.9372 24.4972C13.9143 24.7473 13.9461 24.9994 14.0304 25.2358C14.1147 25.4722 14.2496 25.6871 14.4254 25.8654C14.6012 26.0437 14.8137 26.1811 15.048 26.2679C15.2823 26.3546 15.5327 26.3887 15.7814 26.3676C18.5175 26.1699 21.2536 25.9418 23.9745 25.7137C27.814 25.4096 31.6385 25.1055 35.4629 24.771C36.9746 24.6493 38.592 24.4364 40.149 24.2691C40.8181 24.1827 41.4941 24.3661 42.0293 24.7792C42.5646 25.1922 42.9157 25.8015 43.006 26.4741C43.088 27.1005 42.9214 27.7342 42.5423 28.238C42.1632 28.7417 41.602 29.075 40.9804 29.1656C34.8129 29.3328 29.5222 32.2068 24.0198 34.4877C21.4783 35.4866 18.8382 36.2105 16.1442 36.647C15.4501 36.7582 14.7672 36.9312 14.1035 37.164C13.3919 37.3612 12.7514 37.7598 12.2584 38.3124C11.7653 38.865 11.4404 39.5484 11.3221 40.2813C9.93141 46.8048 8.8128 53.3587 7.8907 59.943C7.01395 65.7365 6.1372 71.4693 5.26045 77.2629C5.20654 77.9041 4.90978 78.5 4.4315 78.9273C3.95323 79.3547 3.33001 79.5808 2.69067 79.559C2.03041 79.5236 1.40992 79.2305 0.961092 78.7421C0.512263 78.2537 0.270492 77.6085 0.287173 76.9435C0.143696 74.4975 0.143696 72.045 0.287173 69.5989C0.75578 63.0755 1.79881 56.628 2.55463 50.135C3.03051 45.6591 2.98485 41.1426 2.41858 36.6774C2.3869 36.4821 2.3148 36.2956 2.20695 36.13C1.5006 35.0795 1.13834 33.8331 1.17087 32.5653C1.20339 31.2975 1.62907 30.0716 2.38835 29.0591C2.5045 28.8176 2.6519 28.5926 2.82672 28.39C4.88078 25.864 6.20393 22.8179 6.65116 19.5856C7.10757 16.7801 7.87838 14.0357 8.94884 11.4047C10.6872 7.61832 13.9221 5.32218 17.278 3.25413C20.0475 1.5935 23.1417 0.555972 26.3478 0.212887C26.4838 0.212887 26.6047 0.212887 26.6501 0.0152062H29.4617C29.9182 0.16716 30.4111 0.16716 30.8676 0.0152062L31.5327 0Z" fill="white"/>
<path d="M481.985 41.513C481.758 42.2277 481.547 42.9576 481.29 43.6571C479.965 47.1355 477.452 50.0252 474.2 51.8076C470.836 53.685 467.29 55.2135 463.619 56.3695C459.714 57.5211 456.04 59.3534 452.765 61.7829C452.398 62.0885 451.945 62.2694 451.469 62.2994C450.994 62.3295 450.522 62.2072 450.12 61.9502C449.715 61.7416 449.38 61.4192 449.155 61.0223C448.929 60.6254 448.823 60.1712 448.85 59.7148C448.909 58.5285 449.208 57.3668 449.728 56.3002C450.247 55.2336 450.977 54.2846 451.873 53.5107C452.483 53.0861 453.203 52.8485 453.944 52.8264C459.566 51.644 464.877 49.2811 469.529 45.8924C470.09 45.4688 470.529 44.9017 470.799 44.2501C471.086 43.6114 470.799 42.9728 470.119 42.9576C467.157 42.6762 464.176 42.6762 461.215 42.9576C457.568 43.459 453.875 43.5355 450.21 43.1857C446.991 42.988 442.425 39.521 443.665 34.6854C444.28 32.5049 445.547 30.5673 447.293 29.1351C449.381 27.304 451.743 25.8158 454.292 24.7253C458.964 22.5438 463.388 19.8622 467.488 16.7268C467.488 16.7268 467.609 16.7268 467.64 16.6052C469.514 14.4611 471.993 14.4003 474.548 14.5979C475.037 14.6156 475.506 14.795 475.883 15.1085C476.26 15.4219 476.524 15.8518 476.634 16.3315C477.022 17.8911 477.139 19.5063 476.981 21.1062C476.879 21.9802 476.52 22.8035 475.948 23.4701C475.377 24.1368 474.621 24.6163 473.777 24.8469C467.836 26.9126 462.297 29.9997 457.406 33.9707C457.214 34.1245 457.055 34.3154 456.938 34.5322C456.821 34.7491 456.749 34.9873 456.726 35.2328C456.635 35.841 456.726 36.0539 457.421 36.0235C460.157 36.0235 462.893 36.0235 465.644 35.9171C469.112 35.6824 472.595 35.9228 475.999 36.6318C477.258 36.9551 478.487 37.3876 479.672 37.9243C480.633 38.2872 481.447 38.9612 481.985 39.8403V41.513Z" fill="white"/>
<path d="M30.928 0C30.7248 0.151833 30.4783 0.233813 30.2251 0.233813C29.9719 0.233813 29.7255 0.151833 29.5222 0L30.928 0Z" fill="#252424"/>
<path d="M107.704 51.8077C102.665 51.72 97.691 50.651 93.0563 48.66C90.1406 47.4284 87.1396 46.412 84.0772 45.6188C82.7394 45.3132 81.3637 45.2107 79.9958 45.3146C78.8462 45.3575 77.7599 45.8547 76.9725 46.6984C74.4319 49.6482 72.7387 53.2389 72.0748 57.0843C71.2769 61.1967 70.8018 65.3659 70.6539 69.5534C70.4876 72.0928 70.3818 74.6475 70.2155 77.1565C70.2398 77.7888 70.0285 78.4074 69.623 78.8912C69.2176 79.375 68.6472 79.6891 68.0236 79.772C67.4042 79.8507 66.778 79.6929 66.2686 79.3297C65.7592 78.9665 65.4038 78.4244 65.2725 77.8103C64.0647 74.6395 63.5991 71.2313 63.912 67.8503C64.2748 65.4781 64.9701 63.1667 65.5294 60.825C67.5399 52.4768 69.1271 44.0981 70.8957 35.6435C72.3771 28.6486 73.9896 21.6892 75.733 14.7653C75.8122 14.3205 76.0115 13.9061 76.3091 13.5676C76.6067 13.2291 76.9911 12.9795 77.4203 12.846C77.8495 12.7126 78.3069 12.7004 78.7425 12.811C79.1781 12.9215 79.5751 13.1505 79.89 13.4728C80.6295 14.1819 81.5622 14.6532 82.5692 14.8265C83.5762 14.9998 84.6117 14.8674 85.5435 14.446C87.254 13.8652 88.8539 12.9962 90.2749 11.8761C91.275 11.0227 92.5078 10.4927 93.8121 10.3555C98.1808 9.92973 102.368 10.3555 105.905 13.2447C107.349 14.4469 108.413 16.047 108.966 17.8487C109.519 19.6503 109.538 21.5752 109.019 23.3872C108.438 24.7888 107.518 26.0223 106.344 26.9759C103.517 29.2199 100.479 31.1806 97.2738 32.8303C95.6953 33.7142 94.254 34.826 92.9958 36.1301C92.7861 36.3243 92.6317 36.5713 92.5485 36.8456C92.4653 37.1199 92.4564 37.4115 92.5226 37.6905C92.5889 37.9694 92.7279 38.2255 92.9253 38.4323C93.1228 38.6392 93.3715 38.7893 93.6459 38.8672C99.1936 40.7223 104.635 43.0185 110.516 43.6419C111.211 43.718 111.922 43.6419 112.632 43.718C113.24 43.7176 113.827 43.942 114.281 44.3485C114.736 44.7551 115.026 45.3154 115.096 45.9229C115.232 46.8556 115.232 47.8033 115.096 48.736C115.048 49.2147 114.857 49.6677 114.55 50.0364C114.243 50.4051 113.833 50.6726 113.373 50.8041C111.55 51.4483 109.635 51.7873 107.704 51.8077Z" fill="white"/>
<path d="M226.458 28.8006C229.481 28.8006 232.429 28.9375 235.392 28.8006C237.765 28.6486 240.108 28.9375 242.481 28.8006C243.05 28.722 243.627 28.8505 244.11 29.1628C244.592 29.4752 244.947 29.9508 245.112 30.5037C245.295 31.0746 245.273 31.6922 245.049 32.2482C244.825 32.8043 244.414 33.2633 243.887 33.545C243.237 34.0099 242.484 34.3072 241.693 34.4106C240.903 34.514 240.099 34.4204 239.352 34.138C238.861 33.9156 238.317 33.8363 237.782 33.9088C237.248 33.9814 236.745 34.203 236.329 34.5486C234.804 35.4995 233.118 36.1593 231.356 36.495C230.194 36.7944 229.084 37.2659 228.06 37.8939C227.561 38.2023 227.006 38.4069 226.427 38.4957C225.848 38.5845 225.257 38.5557 224.689 38.411C223.631 38.2133 222.664 38.0764 221.893 39.2017C221.587 39.6127 221.166 39.9223 220.684 40.0903C220.201 40.2583 219.68 40.2772 219.187 40.1445C218.319 39.9388 217.408 40.0217 216.59 40.3809C215.772 40.74 215.093 41.356 214.652 42.1365C214.032 43.0641 213.413 43.9612 212.808 44.8888C212.566 45.2741 212.413 45.7092 212.361 46.1619C212.309 46.6146 212.358 47.0734 212.506 47.5043C212.914 49.0249 213.564 49.2834 215.03 48.812C219.399 47.413 223.662 45.6643 228.151 44.6607C230.462 44.1177 232.823 43.8221 235.195 43.7788C235.732 43.7282 236.271 43.8573 236.727 44.146C237.183 44.4347 237.532 44.8668 237.72 45.3754C237.921 45.8608 237.961 46.3987 237.833 46.9086C237.705 47.4185 237.416 47.8729 237.009 48.2038C233.592 51.3708 229.541 53.7661 225.128 55.229C219.892 57.022 214.479 58.2405 208.984 58.8633L204.902 59.4108C204.483 59.5411 204.038 59.5625 203.608 59.4731C203.178 59.3838 202.778 59.1865 202.445 58.8996C202.111 58.6127 201.855 58.2456 201.701 57.8325C201.547 57.4193 201.499 56.9736 201.561 56.5368C201.32 52.9653 201.61 49.3776 202.423 45.8924C203.232 42.5185 203.738 39.0781 203.935 35.613C204.447 33.3322 205.265 31.1324 206.368 29.0743C207.401 26.2117 208.755 23.4771 210.405 20.9238C212.696 18.0937 215.792 16.0351 219.278 15.0238C224.005 13.3288 229.169 13.3288 233.895 15.0238C234.449 15.1694 234.939 15.4968 235.286 15.954C235.634 16.4113 235.82 16.9723 235.815 17.548C235.815 18.3843 235.815 19.2207 235.815 20.057C235.862 20.432 235.83 20.8125 235.721 21.1743C235.613 21.536 235.43 21.8709 235.185 22.1574C234.94 22.4438 234.638 22.6756 234.299 22.8376C233.96 22.9997 233.591 23.0885 233.215 23.0983C229.649 23.6477 226.116 24.3991 222.634 25.3488C220.807 25.8591 219.01 26.4734 217.252 27.1888C217.033 27.2719 216.829 27.39 216.648 27.5385C216.345 27.8122 216.028 28.162 216.164 28.5725C216.3 28.9831 216.753 28.7398 217.056 28.7398L226.458 28.8006Z" fill="white"/>
<path d="M404.876 34.9744C405.33 38.5174 402.201 42.2125 398.044 45.3754C395.38 47.1559 392.413 48.429 389.291 49.1314C384.106 50.652 378.71 51.3363 373.48 52.568C370.713 53.1527 367.991 53.9301 365.332 54.8945C365.095 54.946 364.887 55.0862 364.749 55.2868C364.611 55.4874 364.555 55.7332 364.591 55.9742C364.591 57.3123 364.591 58.6657 364.591 60.0038C364.615 60.3648 364.561 60.7267 364.431 61.0642C364.301 61.4016 364.1 61.7064 363.84 61.9571C363.581 62.2078 363.27 62.3983 362.93 62.5154C362.59 62.6324 362.228 62.6731 361.87 62.6345C358.273 62.6345 358.091 62.5433 357.124 59.0611C356.366 56.8179 355.735 54.5333 355.234 52.2182C354.914 49.6818 355.307 47.1058 356.368 44.7824C358.62 39.2625 361.115 33.8187 362.928 28.1316C364.179 24.4349 364.475 20.4792 363.79 16.6357C363.696 16.0307 363.836 15.4124 364.182 14.9087C364.528 14.4049 365.054 14.0542 365.649 13.9289C367.499 13.5467 369.397 13.4645 371.273 13.6856L382.429 14.8261C382.86 14.8797 383.297 14.8797 383.729 14.8261C388.498 14.2576 393.309 15.4755 397.243 18.2475C402.458 21.7145 404.514 26.7934 404.876 34.9744Z" fill="white"/>
<path d="M308.57 54.7424C308.095 54.8092 307.611 54.7775 307.148 54.6494C306.686 54.5213 306.254 54.2994 305.879 53.9973C303.676 52.4214 301.617 50.6504 299.727 48.7056C297.326 46.0394 294.735 43.5541 291.972 41.2697C290.268 39.8174 288.153 38.9398 285.926 38.7607C285.783 38.7296 285.635 38.7274 285.491 38.7543C285.347 38.7811 285.21 38.8365 285.088 38.9171C284.965 38.9978 284.86 39.1021 284.778 39.2241C284.696 39.346 284.639 39.4831 284.611 39.6274C284.219 41.2525 283.946 42.9043 283.794 44.5695C283.235 47.93 283.084 51.3666 281.784 54.5752C281.452 55.4867 280.994 56.3467 280.423 57.1298C280.104 57.5687 279.661 57.9007 279.151 58.0824C278.641 58.2642 278.089 58.2872 277.566 58.1486C277.11 58.0443 276.689 57.8186 276.349 57.4949C276.008 57.1712 275.761 56.7616 275.632 56.3087C275.526 56.0197 275.526 55.7156 275.223 55.5332C274.739 55.2309 274.361 54.7841 274.142 54.2553C273.922 53.7265 273.872 53.1419 273.999 52.5831C274.468 47.0633 274.785 41.5434 275.42 36.054C275.861 30.4656 278.064 25.1649 281.708 20.9238C282.02 20.5008 282.423 20.154 282.886 19.9094C283.35 19.6648 283.862 19.5287 284.385 19.5111C284.909 19.4936 285.429 19.5951 285.908 19.8081C286.386 20.0211 286.811 20.3401 287.15 20.7413C287.719 21.2569 288.199 21.8631 288.571 22.5356C289.448 24.1627 290.355 25.7593 291.096 27.4472C292.747 31.0109 295.367 34.0317 298.654 36.1604C300.498 37.4298 302.481 38.4809 304.564 39.2929C305.728 39.7491 306.288 39.5514 306.681 38.3957C310.142 27.8578 314.934 17.8521 318.94 7.52707C319.333 6.50825 319.665 5.45902 320.058 4.48582C320.211 3.99939 320.516 3.57544 320.927 3.27686C321.338 2.97829 321.834 2.82101 322.341 2.82834C322.843 2.80207 323.34 2.93462 323.763 3.20738C324.186 3.48013 324.513 3.87937 324.699 4.34897C325.21 5.3881 325.465 6.53511 325.444 7.69392C325.423 8.85274 325.126 9.9896 324.578 11.0093C324.531 11.1354 324.465 11.2533 324.382 11.359C322.456 14.0177 321.121 17.0618 320.467 20.2851C318.411 27.8882 315.418 35.2176 314.239 43.0945C313.801 45.4664 313.589 47.8747 313.604 50.287C313.755 53.5868 311.714 54.7424 309.069 54.8489L308.57 54.7424Z" fill="white"/>
<path d="M165.978 18.2474C165.918 22.6994 164.956 27.0923 163.151 31.1575C162.108 33.6209 161.231 36.13 160.218 38.6086C159.449 41.001 159.161 43.5237 159.372 46.0292C159.437 48.3419 159.382 50.6564 159.205 52.9633C159.223 53.3778 159.148 53.7911 158.986 54.1726C158.823 54.554 158.578 54.8938 158.267 55.1669C157.956 55.4399 157.589 55.6392 157.191 55.75C156.794 55.8607 156.376 55.8802 155.97 55.8068C154.662 55.8527 153.373 55.4859 152.282 54.7576C151.794 54.4009 151.418 53.9096 151.201 53.343C150.983 52.7764 150.934 52.1586 151.058 51.5643C152.373 44.098 153.658 36.6166 155.003 29.1503C155.955 23.9346 157.059 18.734 158.268 13.5639C158.307 13.2065 158.417 12.8607 158.591 12.5467C158.765 12.2328 159 11.9571 159.282 11.736C159.564 11.5149 159.887 11.3528 160.232 11.2593C160.577 11.1658 160.937 11.1429 161.291 11.1917C164.647 11.1917 165.146 11.5567 165.721 14.9325C165.864 16.0321 165.95 17.1387 165.978 18.2474Z" fill="white"/>
<path d="M58.7119 38.5478C58.7242 40.0567 58.1462 41.51 57.1026 42.594C56.059 43.6779 54.6336 44.3055 53.134 44.3414C51.6753 44.2658 50.3011 43.6296 49.2952 42.5642C48.2894 41.4988 47.7285 40.0856 47.7285 38.6163C47.7285 37.1469 48.2894 35.7337 49.2952 34.6683C50.3011 33.6029 51.6753 32.9668 53.134 32.8911C54.6077 32.9337 56.0088 33.5448 57.0471 34.5977C58.0854 35.6507 58.6815 37.065 58.7119 38.5478Z" fill="#E82527"/>
<path d="M187.594 34.1989C189.045 34.2743 190.411 34.9072 191.412 35.9669C192.412 37.0266 192.97 38.4322 192.97 39.8936C192.97 41.355 192.412 42.7606 191.412 43.8203C190.411 44.88 189.045 45.5129 187.594 45.5883C186.143 45.5129 184.776 44.88 183.776 43.8203C182.776 42.7606 182.218 41.355 182.218 39.8936C182.218 38.4322 182.776 37.0266 183.776 35.9669C184.776 34.9072 186.143 34.2743 187.594 34.1989Z" fill="#F8BC1A"/>
<path d="M427.989 45.3755C427.224 45.3981 426.463 45.2643 425.75 44.9821C425.038 44.6999 424.391 44.2752 423.847 43.7337C423.302 43.1922 422.873 42.5452 422.585 41.832C422.297 41.1187 422.156 40.354 422.17 39.5842C422.185 38.8144 422.354 38.0556 422.669 37.3537C422.983 36.6518 423.436 36.0214 424 35.5008C424.564 34.9802 425.227 34.5802 425.949 34.3251C426.671 34.0699 427.437 33.9649 428.201 34.0164C429.65 34.1141 431.006 34.769 431.988 35.8453C432.97 36.9216 433.502 38.3367 433.475 39.7974C433.448 41.258 432.863 42.6521 431.842 43.6906C430.82 44.7291 429.441 45.3324 427.989 45.3755Z" fill="#0AB1E7"/>
<path d="M254.544 41.2089C254.512 40.4546 254.632 39.7015 254.898 38.9954C255.164 38.2893 255.57 37.6451 256.091 37.1018C256.613 36.5586 257.238 36.1278 257.93 35.8356C258.623 35.5433 259.367 35.3958 260.117 35.402C260.868 35.4082 261.609 35.568 262.296 35.8716C262.984 36.1752 263.602 36.6163 264.115 37.1681C264.627 37.7198 265.022 38.3707 265.277 39.0811C265.531 39.7914 265.639 40.5465 265.594 41.3002C265.627 42.0545 265.507 42.8076 265.241 43.5137C264.975 44.2198 264.569 44.864 264.047 45.4072C263.526 45.9505 262.9 46.3813 262.208 46.6735C261.516 46.9657 260.772 47.1132 260.022 47.107C259.271 47.1008 258.53 46.9411 257.842 46.6375C257.155 46.3339 256.536 45.8927 256.024 45.341C255.512 44.7892 255.116 44.1384 254.862 43.428C254.607 42.7176 254.499 41.9626 254.544 41.2089Z" fill="#E82527"/>
<path d="M333.391 40.2205C333.377 39.4817 333.508 38.7472 333.776 38.0592C334.044 37.3712 334.445 36.743 334.954 36.2107C335.464 35.6783 336.073 35.2522 336.746 34.9565C337.419 34.6609 338.144 34.5016 338.878 34.4878C340.378 34.5158 341.806 35.1389 342.85 36.2212C343.895 37.3036 344.472 38.7575 344.456 40.2662C344.473 41.0143 344.339 41.758 344.062 42.4526C343.785 43.1472 343.372 43.7784 342.847 44.3082C342.322 44.838 341.695 45.2555 341.005 45.5356C340.316 45.8157 339.577 45.9526 338.833 45.9381C338.097 45.941 337.368 45.7932 336.69 45.5038C336.013 45.2143 335.401 44.7892 334.892 44.2544C334.383 43.7196 333.987 43.0861 333.729 42.3927C333.471 41.6992 333.356 40.9602 333.391 40.2205Z" fill="#F8BC1A"/>
<path d="M132.48 39.445C132.456 38.7018 132.585 37.9618 132.859 37.2711C133.132 36.5803 133.544 35.9536 134.069 35.43C134.593 34.9064 135.22 34.4972 135.909 34.2278C136.598 33.9584 137.334 33.8347 138.073 33.8643C139.513 33.9564 140.862 34.6017 141.842 35.6666C142.822 36.7315 143.358 38.1346 143.339 39.5857C143.319 41.0368 142.746 42.4249 141.738 43.4629C140.73 44.5009 139.363 45.1094 137.922 45.1625C137.184 45.172 136.452 45.0288 135.771 44.7416C135.091 44.4544 134.476 44.0295 133.966 43.4933C133.455 42.9571 133.06 42.321 132.804 41.6245C132.549 40.9281 132.438 40.1862 132.48 39.445Z" fill="#0AB1E7"/>
<path d="M80.2981 32.9216C80.3195 31.6178 80.4663 30.3192 80.7364 29.044C80.9605 27.94 81.411 26.8951 82.0591 25.9761C82.7072 25.0571 83.5387 24.2842 84.5004 23.7066C88.0341 21.5019 91.8905 19.8701 95.9284 18.871C96.8101 18.6636 97.7224 18.6224 98.6191 18.7493C99.9795 18.9318 100.388 19.7378 99.7074 20.939C98.8825 22.343 97.8647 23.6228 96.6842 24.7406C93.1249 28.3429 89.0485 31.3877 84.5911 33.7731C83.6189 34.2899 82.5739 34.654 81.4922 34.8527C80.6911 35.0048 80.1015 34.8527 80.3132 33.8339C80.3316 33.5299 80.3266 33.2248 80.2981 32.9216Z" fill="#231F20"/>
<path d="M365.045 42.2125C366.118 39.369 367.191 36.495 368.249 33.621C369.489 30.2111 370.499 26.7209 371.273 23.1743C371.409 22.5965 371.484 22.338 372.21 22.5357C375.42 23.1684 378.689 23.4539 381.96 23.3872C384.631 23.3742 387.3 23.5674 389.941 23.9651C395.398 25.1207 398.195 28.8919 399.011 34.2141C399.049 34.7136 398.933 35.2128 398.679 35.6435C397.712 37.6059 396.114 39.1815 394.144 40.1141C391.239 41.4023 388.195 42.3463 385.074 42.9272C382.838 43.4321 380.636 44.0822 378.483 44.8736C378.139 45.0028 377.765 45.0299 377.406 44.9517C377.047 44.8736 376.718 44.6934 376.458 44.4327C375.756 43.8056 375.132 43.0959 374.598 42.319C373.359 40.7984 372.83 40.5551 371.031 41.4218C369.2 42.4179 367.069 42.6995 365.045 42.2125Z" fill="#231F20"/>
</g>
<defs>
<clipPath id="clip0_19_97">
<rect width="482" height="80" fill="white"/>
</clipPath>
</defs>
</svg>
