<svg width="32" height="30" viewBox="0 0 32 30" fill="none" xmlns="http://www.w3.org/2000/svg">
<path d="M26.5063 16.9375C25.5606 15.9925 24 16.6609 24 17.9981V21H21L9.6 5.79998C9.225 5.29998 8.63125 4.99998 8 4.99998H2C0.894375 4.99998 0 5.89373 0 6.99998C0 8.10623 0.894375 8.99998 2 8.99998H7L18.4 24.2C18.775 24.7062 19.3688 25 20 25H23.9981V27.9962C23.9981 29.3331 25.6144 30.0037 26.56 29.0587L31.5038 24.06C32.0904 23.4733 32.0904 22.5231 31.5038 21.9369L26.5063 16.9375ZM21 8.99998H23.9981V12.0019C23.9981 13.3387 25.615 14.0075 26.5044 13.0625L31.4481 8.06373C32.0348 7.47679 32.0347 6.52686 31.448 5.94061L26.5043 0.941858C25.5587 -0.00314194 23.9424 0.66742 23.9424 2.00436V4.99998H20C19.3713 4.99998 18.7775 5.29686 18.4006 5.80061L15.875 9.16873L18.3188 12.5L21 8.99998ZM7 21H2C0.894375 21 0 21.8944 0 23C0 24.1056 0.894375 25 2 25H8C8.62875 25 9.2225 24.7031 9.59938 24.1994L12.1244 20.8325L9.625 17.5L7 21Z" fill="#0D0D0D"/>
</svg>
